<svg width="496" height="337" viewBox="0 0 496 337" fill="none" xmlns="http://www.w3.org/2000/svg">
<path d="M25.124 250.119C25.124 250.119 40.1717 178.413 59.2321 145.317C78.2924 112.222 107.886 20.4575 240.807 28.9821C373.728 37.5067 383.258 83.1381 404.827 133.784C426.395 184.43 458.998 176.908 471.538 203.485C484.078 230.062 478.059 236.58 478.059 236.58L25.124 250.119Z" fill="#F8F8FF"/>
<path d="M25.124 250.119C25.124 250.119 38.6669 265.163 37.1622 268.673C35.6574 272.183 0.0445951 311.296 65.2511 324.333C130.458 337.371 386.769 343.388 422.382 327.342C457.995 311.296 445.455 303.273 432.414 286.725C419.373 270.177 457.995 286.223 466.522 269.174C471.688 258.844 475.551 247.863 478.059 236.58L25.124 250.119Z" fill="#F5F5FC"/>
<path d="M477.106 217.425C477.106 217.425 425.893 167.08 277.925 198.17C129.956 229.259 76.7876 191.902 54.7177 191.902C32.6478 191.902 31.4941 250.22 31.4941 250.22L478.008 236.681L479.212 232.87C479.413 231.716 479.513 230.513 479.413 229.36L479.212 227.053C479.162 226.351 479.062 225.649 478.911 224.997L477.106 217.425Z" fill="#E9EDFA"/>
<path d="M24.9234 249.919C24.9234 249.919 -31.1542 221.637 24.9234 206.343C24.9234 206.343 49.5012 142.86 93.9921 198.019C93.9921 198.019 134.771 193.857 135.724 221.186C135.724 221.186 144.552 227.203 157.995 228.607C171.437 230.011 172.39 241.143 169.582 244.353C166.773 247.562 157.092 248.515 157.092 248.515L24.9234 249.919Z" fill="#BAC6F2"/>
<path d="M35.6074 249.518C35.6074 249.518 -5.77366 228.658 35.6074 217.375C35.6074 217.375 53.7148 170.54 86.5187 211.207C86.5187 211.207 116.614 208.148 117.266 228.307C117.266 228.307 123.787 232.769 133.668 233.772C143.549 234.775 144.252 242.999 142.195 245.406C140.138 247.813 132.966 248.465 132.966 248.465L35.6074 249.518Z" fill="#B1C1F2"/>
<path d="M447.763 237.533L447.712 114.027C447.712 114.027 388.324 109.314 397.102 72.1565C402.87 47.686 422.432 45.7303 421.931 32.8432C421.58 23.5163 430.056 -14.6938 455.688 6.11619C476.002 22.5636 466.472 36.1026 476.905 38.0582C487.589 40.0139 500.68 58.0158 493.407 68.5962C486.134 79.1767 494.26 79.5277 494.26 84.8431C494.26 90.1584 498.573 105.452 476.754 109.414C454.935 113.375 450.722 114.629 450.722 114.629L452.578 237.533H447.763Z" fill="#B1C1F2"/>
<path d="M433.568 237.984V175.855C433.568 175.855 413.103 173.499 416.113 154.745C418.119 142.409 424.84 141.406 424.69 134.887C424.59 130.174 427.499 110.918 436.327 121.398C443.299 129.672 440.038 136.542 443.65 137.495C447.362 138.498 451.826 147.574 449.318 152.889C446.81 158.205 449.619 158.405 449.619 161.063C449.619 163.72 451.124 171.493 443.6 173.448C436.076 175.404 435.875 175.454 435.875 175.454L435.976 237.734L433.568 237.984Z" fill="#B1C1F2"/>
<path d="M414.708 238.586L414.758 134.035C414.758 134.035 456.942 130.073 450.722 98.5826C446.609 77.8228 432.715 76.2182 433.066 65.2867C433.317 57.3638 427.298 25.0708 409.09 42.6715C394.694 56.6117 401.466 68.0446 394.042 69.6994C386.418 71.3542 377.139 86.5981 382.305 95.5739C387.472 104.55 381.703 104.851 381.703 109.314C381.703 113.776 378.644 126.764 394.143 130.124C409.642 133.483 412.601 134.536 412.601 134.536L411.448 238.586H414.708Z" fill="#BAC6F2"/>
<path d="M158.045 121.549C164.666 121.549 170.033 116.183 170.033 109.564C170.033 102.945 164.666 97.5798 158.045 97.5798C151.424 97.5798 146.057 102.945 146.057 109.564C146.057 116.183 151.424 121.549 158.045 121.549Z" fill="white"/>
<path d="M117.567 121.248C124.187 121.248 129.555 115.882 129.555 109.263C129.555 102.644 124.187 97.2788 117.567 97.2788C110.946 97.2788 105.579 102.644 105.579 109.263C105.579 115.882 110.946 121.248 117.567 121.248Z" fill="white"/>
<path d="M138.232 124.858C147.125 124.858 154.333 117.652 154.333 108.762C154.333 99.8721 147.125 92.6655 138.232 92.6655C129.34 92.6655 122.131 99.8721 122.131 108.762C122.131 117.652 129.34 124.858 138.232 124.858Z" fill="white"/>
<path d="M309.826 94.7716C316.447 94.7716 321.814 89.4059 321.814 82.787C321.814 76.1682 316.447 70.8025 309.826 70.8025C303.205 70.8025 297.838 76.1682 297.838 82.787C297.838 89.4059 303.205 94.7716 309.826 94.7716Z" fill="white"/>
<path d="M330.541 98.4322C339.461 98.4322 346.692 91.2032 346.692 82.2857C346.692 73.3682 339.461 66.1392 330.541 66.1392C321.621 66.1392 314.39 73.3682 314.39 82.2857C314.39 91.2032 321.621 98.4322 330.541 98.4322Z" fill="white"/>
<path d="M95.397 228.106V246.308H390.381L390.231 228.357L95.397 228.106Z" fill="url(#paint0_linear_11_236)"/>
<path d="M127.248 165.977L126.747 228.908H135.575L135.524 165.977H127.248Z" fill="#E5A4ED"/>
<path d="M350.154 165.225L350.856 228.908H359.283L359.233 165.225H350.154Z" fill="url(#paint1_linear_11_236)"/>
<path d="M111.448 165.977C111.448 165.977 113.705 157.653 119.774 157.653L364.9 157.703C365.753 157.703 366.506 157.904 367.258 158.305C369.314 159.458 373.428 162.066 374.531 165.977H111.448Z" fill="url(#paint2_linear_11_236)"/>
<path d="M109.792 174.652V181.873L374.029 182.073L373.829 175.053L109.792 174.652Z" fill="url(#paint3_linear_11_236)"/>
<path d="M109.792 189.795V197.066L374.029 197.267L373.829 190.247L109.792 189.795Z" fill="url(#paint4_linear_11_236)"/>
<path d="M109.792 207.246V214.467L374.029 214.717L373.829 207.697L109.792 207.246Z" fill="url(#paint5_linear_11_236)"/>
<path d="M109.792 220.885V228.106L374.029 228.357L373.829 221.286L109.792 220.885Z" fill="url(#paint6_linear_11_236)"/>
<path d="M121.931 245.606L122.132 291.839H143.148L143.8 245.606H121.931Z" fill="url(#paint7_linear_11_236)"/>
<path d="M343.382 245.757L343.733 292.592H365.352L364.951 245.606L343.382 245.757Z" fill="url(#paint8_linear_11_236)"/>
<path d="M264.632 237.082C262.726 233.923 261.222 233.07 256.507 232.97C251.792 232.82 245.522 232.92 245.522 232.92L245.472 239.589C245.472 239.589 250.688 242.598 253.447 244.052C253.597 244.152 254.049 244.403 254.4 244.604C254.902 244.854 255.403 245.005 255.905 245.155C258.663 245.757 261.121 245.456 262.927 243.651C264.883 241.695 266.538 240.241 264.632 237.082Z" fill="#4B44BE"/>
<path d="M229.12 231.115C228.97 231.265 228.518 231.566 228.267 231.817C227.866 232.168 227.515 232.569 227.214 233.02C225.659 235.327 225.007 237.784 226.01 240.091C227.114 242.648 227.866 244.754 231.478 244.152C235.089 243.551 236.493 242.447 238.349 238.135C240.205 233.822 242.512 227.956 242.462 227.956L236.293 225.398C236.243 225.398 231.528 229.109 229.12 231.115Z" fill="#4B44BE"/>
<path d="M245.973 233.17C245.973 233.17 246.074 239.94 244.97 240.09C243.867 240.241 228.719 238.035 222.7 237.734C216.681 237.433 202.987 233.521 196.266 225.9C190.447 219.331 191.35 212.11 195.664 212.11C199.978 212.11 203.89 208.449 214.825 213.664C225.759 218.879 237.296 219.732 243.766 219.23C250.237 218.729 268.444 215.369 269.849 214.316C271.253 213.263 278.075 210.305 287.555 211.358C297.035 212.411 292.571 219.932 290.565 222.791C287.756 226.802 281.085 231.165 275.567 231.365C269.949 231.516 245.973 233.17 245.973 233.17Z" fill="url(#paint9_linear_11_236)"/>
<path d="M234.738 115.231C231.527 116.384 227.464 132.23 227.464 132.23L227.414 132.18L226.963 134.386L226.411 137.244L227.464 154.394L237.797 159.558L261.522 165.927L268.093 175.254C268.093 175.254 282.79 190.197 282.89 191.25C282.99 192.303 267.09 197.518 265.585 197.769C261.924 198.32 288.909 191.701 280.282 181.221C276.62 176.758 271.203 163.269 260.519 154.293C254.299 149.128 256.055 134.436 253.848 125.159C251.089 113.526 249.434 110.066 246.675 110.066C244.167 110.016 240.706 112.974 234.738 115.231Z" fill="url(#paint10_linear_11_236)"/>
<path d="M268.294 152.739C263.328 148.176 261.623 147.072 257.309 148.627C252.996 150.181 250.839 151.585 244.87 152.588C241.208 153.24 237.446 152.739 234.036 151.285L221.797 152.488C220.242 152.287 202.837 184.932 202.436 191.751C202.185 195.913 211.615 202.332 214.273 202.984C215.326 203.234 217.232 192.955 217.834 192.052L213.872 190.849C214.574 189.094 216.982 184.681 218.537 182.324C219.038 181.572 222.8 175.354 223.302 172.947C223.402 173.198 223.954 177.711 224.455 179.165C225.408 181.823 226.763 183.377 226.763 185.483C226.763 187.589 226.512 196.064 224.957 199.875C223.402 203.686 221.145 212.511 221.145 212.511L260.269 212.26C260.269 212.26 258.864 195.462 259.416 189.645C259.416 189.645 258.814 187.338 259.968 183.979C261.874 178.413 262.426 170.189 262.074 168.885C261.573 166.829 273.561 184.029 276.169 188.392C277.273 190.197 262.375 193.406 261.172 194.76C259.867 196.214 262.426 200.125 262.426 200.125C262.426 200.125 288.358 196.966 288.257 193.005C288.207 189.043 274.062 158.004 268.294 152.739Z" fill="url(#paint11_linear_11_236)"/>
<path d="M237.848 105.904C237.848 105.904 230.575 106.205 228.468 113.827C226.361 121.449 226.06 132.079 226.01 133.684C225.96 135.439 226.763 145.618 222.85 149.881C219.49 153.541 220.844 157.101 219.991 160.06L219.59 164.924C219.64 165.526 220.091 165.977 220.643 166.177C221.145 166.328 222.951 165.475 223.302 165.375C227.816 163.57 227.816 162.116 229.521 160.662C230.926 159.458 234.838 156.7 235.992 155.597C237.145 154.494 237.948 153.541 238.048 152.137C238.299 145.067 237.045 138.548 235.49 135.088C233.935 131.628 230.976 125.811 233.434 121.9C235.891 117.989 240.406 114.178 240.657 113.175C240.907 112.222 241.058 116.936 243.766 118.54C246.525 120.195 248.782 122.502 249.635 124.708C250.337 126.563 251.29 129.773 248.682 135.288C246.074 140.804 244.017 147.925 247.629 153.19C251.29 158.455 258.965 164.122 260.219 166.779C261.623 169.738 260.269 176.608 260.018 180.77C259.767 184.932 268.144 173.549 267.893 168.133C267.642 162.718 268.545 160.411 263.328 152.037C258.112 143.713 254.751 129.422 254.601 126.012C254.45 122.552 252.945 112.974 249.785 110.216C247.077 107.91 246.475 105.653 240.958 105.653C240.005 105.703 238.901 105.804 237.848 105.904Z" fill="url(#paint12_linear_11_236)"/>
<path opacity="0.07" d="M221.295 221.336L257.961 221.537C257.961 221.537 253.647 224.897 251.591 225.298C249.534 225.699 240.656 230.062 237.396 228.407C235.089 227.103 221.295 221.336 221.295 221.336Z" fill="black"/>
<path opacity="0.07" d="M241.71 138.999C241.71 138.999 245.121 139.852 246.575 137.846C249.786 133.333 246.876 140.152 246.876 140.152C246.876 140.152 245.923 142.81 246.024 144.114C246.024 145.468 242.312 139.2 241.71 138.999Z" fill="black"/>
<path opacity="0.07" d="M228.016 162.216C227.615 162.718 226.963 163.169 226.662 164.473C226.11 166.579 225.508 168.986 224.054 171.192C223.201 172.496 223.653 177.46 225.107 180.669C225.508 181.572 226.813 183.929 226.762 184.48L226.712 189.043H230.675C230.675 189.043 234.035 189.394 233.333 186.636C232.731 184.179 229.521 175.053 231.678 173.047C235.741 169.337 230.625 161.915 232.531 159.508C234.186 157.452 236.543 155.948 236.543 155.296C236.543 155.045 235.941 155.898 235.49 156.149C234.687 156.75 234.286 157.202 233.584 157.653C232.832 158.154 231.728 158.957 230.976 159.508C229.872 160.311 228.919 161.213 228.016 162.216Z" fill="black"/>
<path d="M212.718 191.651C212.718 191.651 212.668 189.244 215.025 189.144C217.383 189.043 267.291 189.094 267.291 189.094C267.291 189.094 269.498 189.344 269.548 191.15C269.598 192.905 269.598 219.281 269.598 219.281C269.598 219.281 269.648 221.337 267.491 221.387C265.335 221.437 214.474 221.437 214.474 221.437C214.474 221.437 212.568 220.935 212.618 219.03C212.618 217.175 212.718 191.651 212.718 191.651Z" fill="white"/>
<path d="M241.309 207.446C242.5 207.446 243.466 206.481 243.466 205.29C243.466 204.099 242.5 203.134 241.309 203.134C240.118 203.134 239.152 204.099 239.152 205.29C239.152 206.481 240.118 207.446 241.309 207.446Z" fill="url(#paint13_linear_11_236)"/>
<path d="M359.533 205.34C359.533 205.34 365.301 225.549 364.348 227.805C363.395 230.062 358.73 230.513 356.674 230.964C354.617 231.415 335.808 236.179 333.902 236.28C331.996 236.38 332.146 236.631 331.294 236.631C330.441 236.631 320.008 233.221 319.657 232.017C319.306 230.814 319.005 230.011 319.306 228.507C319.607 227.003 324.372 207.747 325.676 207.346C326.93 206.945 359.533 205.34 359.533 205.34Z" fill="url(#paint14_linear_11_236)"/>
<path d="M360.486 208.951C360.486 208.951 360.085 205.791 359.483 205.34C358.881 204.889 357.326 202.833 355.771 202.733C354.216 202.632 329.187 205.691 328.284 205.892C327.381 206.092 326.127 206.544 325.676 207.296C325.225 208.048 329.287 208.951 330.09 211.357C330.893 213.764 345.138 218.829 348.699 219.18C352.21 219.531 360.486 208.951 360.486 208.951Z" fill="url(#paint15_linear_11_236)"/>
<path d="M352.31 203.535C352.31 203.535 349.602 197.869 348.298 196.816C347.144 195.863 343.081 193.807 340.573 196.866C337.764 200.326 338.015 204.337 338.015 204.839C338.015 205.34 340.774 204.889 340.774 204.889C340.774 204.889 339.871 200.777 340.673 199.373C341.376 198.069 341.827 196.515 344.385 196.665C346.993 196.816 347.896 198.22 348.699 199.523C349.351 200.827 349.903 202.181 350.354 203.585C350.505 203.736 352.31 203.535 352.31 203.535Z" fill="#7A5BF5"/>
<path d="M348.047 203.886C348.047 203.886 345.338 196.966 344.034 195.662C342.881 194.509 338.567 192.202 336.059 195.913C333.25 200.125 333.852 204.839 333.852 205.39C333.852 205.942 336.611 205.491 336.611 205.491C336.611 205.491 335.758 200.476 336.561 198.721C337.263 197.117 337.714 195.211 340.222 195.412C342.78 195.612 343.733 197.267 344.536 198.922C345.188 200.526 345.74 202.181 346.191 203.886C346.141 204.137 348.047 203.886 348.047 203.886Z" fill="#7A5BF5"/>
<path d="M331.193 212.762C331.193 212.762 333.551 232.168 333.25 233.471C332.949 234.775 332.146 236.63 331.595 236.63C331.043 236.63 330.09 236.53 330.441 236.079C331.645 234.424 332.146 232.368 331.845 230.413C331.494 227.253 330.09 211.358 330.09 211.358L331.193 212.762Z" fill="#7A5BF5"/>
<path d="M349.301 220.584C350.104 220.584 350.755 219.956 350.755 219.18C350.755 218.405 350.104 217.776 349.301 217.776C348.497 217.776 347.846 218.405 347.846 219.18C347.846 219.956 348.497 220.584 349.301 220.584Z" fill="white"/>
<path d="M35.0059 181.171L50.204 252.526L51.5583 251.674L35.0059 181.171Z" fill="url(#paint16_linear_11_236)"/>
<path d="M14.2402 158.355L29.8898 251.022L27.9838 250.771L14.2402 158.355Z" fill="url(#paint17_linear_11_236)"/>
<path d="M16.4473 143.412C16.4473 143.412 16.1965 155.396 14.2403 158.405C14.2403 158.355 11.7825 151.134 16.4473 143.412Z" fill="url(#paint18_linear_11_236)"/>
<path d="M23.5194 147.774C23.5194 147.774 18.9549 157.202 16.146 158.756C16.1962 158.756 16.5974 151.886 23.5194 147.774Z" fill="url(#paint19_linear_11_236)"/>
<path d="M8.82297 139.3C8.82297 139.3 15.2935 153.19 13.8389 157.803C13.8389 157.803 5.6128 151.084 8.82297 139.3Z" fill="url(#paint20_linear_11_236)"/>
<path d="M26.6793 152.638C26.6793 152.638 21.7136 164.874 20.1587 168.284C19.7574 169.086 19.4565 169.437 19.2558 169.487C18.5035 169.587 18.3028 166.829 18.4533 164.974C18.7041 162.417 21.0616 154.995 26.6793 152.638Z" fill="url(#paint21_linear_11_236)"/>
<path d="M19.1554 169.236C19.1554 169.236 19.2056 169.186 19.2056 169.286C18.9548 170.44 17.5503 177.209 17.6005 178.413C17.6506 179.716 17.1992 176.658 17.1992 176.658L19.1554 169.236Z" fill="url(#paint22_linear_11_236)"/>
<path d="M16.196 158.656C16.196 158.656 16.3465 158.606 16.2964 158.656C15.8449 159.709 15.4437 164.272 15.4938 165.475C15.544 166.779 15.1929 164.422 15.1929 164.422L16.196 158.656Z" fill="url(#paint23_linear_11_236)"/>
<path d="M28.4347 157.954C28.4347 157.954 25.074 174.401 22.7667 177.911C19.8074 182.424 20.0582 173.449 20.5096 171.844C21.0112 170.289 23.0677 160.912 28.4347 157.954Z" fill="url(#paint24_linear_11_236)"/>
<path d="M16.196 158.656C16.196 158.656 16.3465 158.606 16.2964 158.656C15.8449 159.709 15.4437 164.272 15.4938 165.475C15.544 166.779 15.1929 164.422 15.1929 164.422L16.196 158.656Z" fill="url(#paint25_linear_11_236)"/>
<path d="M21.1618 178.563C21.1618 178.563 21.212 178.463 21.212 178.613C20.9612 179.867 19.4063 187.439 19.4564 188.793C19.4564 190.247 19.0552 186.887 19.0552 186.887L21.1618 178.563Z" fill="url(#paint26_linear_11_236)"/>
<path d="M35.959 165.626C35.959 165.626 28.6358 183.929 25.4256 187.589C21.4129 192.253 22.8675 181.572 23.7704 179.817C24.6733 178.012 29.9399 168.183 35.959 165.626Z" fill="url(#paint27_linear_11_236)"/>
<path d="M23.5193 188.542C23.5193 188.542 23.6197 188.241 23.6197 188.342C23.3187 189.746 21.1619 197.217 21.212 198.721C21.2622 200.326 20.7104 196.866 20.7104 196.866L23.5193 188.542Z" fill="url(#paint28_linear_11_236)"/>
<path d="M39.4698 175.053C39.4698 175.053 30.6418 193.857 27.3815 197.819C23.3186 202.833 25.4755 190.899 26.8799 187.79C28.3345 184.53 33.4006 177.811 39.4698 175.053Z" fill="url(#paint29_linear_11_236)"/>
<path d="M25.4255 198.872C25.4255 198.872 25.5258 198.521 25.5258 198.671C25.2248 200.176 22.9677 208.149 23.0178 209.753C23.0178 211.458 22.5664 207.798 22.5664 207.798L25.4255 198.872Z" fill="url(#paint30_linear_11_236)"/>
<path d="M41.2252 185.132C41.2252 185.132 32.3972 203.936 29.1369 207.898C25.074 212.912 27.2308 200.978 28.6353 197.869C30.14 194.66 35.1559 187.89 41.2252 185.132Z" fill="url(#paint31_linear_11_236)"/>
<path d="M27.2312 208.951C27.2312 208.951 27.3315 208.6 27.3315 208.75C27.0306 210.254 24.7734 218.528 24.7734 220.083C24.7734 221.788 24.2217 217.776 24.2217 217.776L27.2312 208.951Z" fill="url(#paint32_linear_11_236)"/>
<path d="M45.6394 194.409C45.6394 194.409 34.8553 213.664 31.6451 217.626C27.5822 222.64 30.4915 209.202 31.9461 206.093C33.3505 202.783 39.5201 197.117 45.6394 194.409Z" fill="url(#paint33_linear_11_236)"/>
<path d="M30.04 218.528C30.04 218.528 30.0901 218.328 30.0901 218.528C29.739 220.334 26.88 230.162 26.8298 232.017C26.7796 234.073 26.1777 229.259 26.1777 229.259L30.04 218.528Z" fill="url(#paint34_linear_11_236)"/>
<path d="M51.3074 205.942C51.3074 205.942 47.0941 212.812 42.2287 218.428C38.9684 222.189 34.9556 224.897 33.4007 226.251C28.4852 230.463 34.103 218.328 36.0591 215.47C38.0153 212.611 44.8369 207.597 51.3074 205.942Z" fill="url(#paint35_linear_11_236)"/>
<path d="M31.5949 226.852C31.5949 226.852 31.645 226.652 31.645 226.852C31.2939 228.658 28.2342 239.238 28.2844 241.144C28.2844 241.595 27.6323 237.684 27.6323 237.684L31.5949 226.852Z" fill="url(#paint36_linear_11_236)"/>
<path d="M53.0628 216.623C53.0628 216.623 48.3479 224.395 42.8806 230.713C39.219 234.976 34.805 238.085 33.0494 239.589C27.5821 244.353 33.9021 230.764 36.1091 227.504C38.3663 224.245 45.9403 218.528 53.0628 216.623Z" fill="url(#paint37_linear_11_236)"/>
<path d="M57.6773 234.524C57.6773 234.524 49.1002 238.436 42.7802 242.397C35.4068 247.01 34.1528 247.512 32.1465 247.913C25.7261 249.167 37.062 236.881 40.1719 235.327C43.3319 233.722 50.9561 232.619 57.6773 234.524Z" fill="url(#paint38_linear_11_236)"/>
<path d="M30.9428 240.642C30.993 240.492 31.0431 240.391 31.1435 240.291C30.9428 241.194 28.9866 245.305 29.1371 246.308C29.1873 246.559 28.7358 244.553 28.7358 244.553L30.9428 240.642Z" fill="url(#paint39_linear_11_236)"/>
<path d="M30.993 247.311L31.1434 247.111C30.993 247.562 29.3377 249.468 29.5885 250.019C29.6387 250.17 29.0869 249.117 29.0869 249.117L30.993 247.311Z" fill="url(#paint40_linear_11_236)"/>
<path d="M9.32471 147.123C9.32471 147.123 12.585 158.556 14.5914 161.263C14.5914 161.263 14.2904 154.093 9.32471 147.123Z" fill="url(#paint41_linear_11_236)"/>
<path d="M5.86328 151.836C5.86328 151.836 11.2303 160.511 13.4373 161.765C13.3871 161.765 11.3808 155.246 5.86328 151.836Z" fill="url(#paint42_linear_11_236)"/>
<path d="M13.1365 142.61C13.1365 142.61 12.4845 156.349 14.6413 160.662C14.6915 160.662 18.2026 153.541 13.1365 142.61Z" fill="url(#paint43_linear_11_236)"/>
<path d="M5.06055 156.75C5.06055 156.75 11.3806 168.033 13.2364 171.192C13.6879 171.944 13.9888 172.245 14.1393 172.245C14.6409 172.245 14.039 169.637 13.4872 167.832C12.7349 165.475 9.32405 158.555 5.06055 156.75Z" fill="url(#paint44_linear_11_236)"/>
<path d="M14.1898 171.994C14.1898 171.994 14.1396 171.944 14.1898 172.044C14.6412 173.097 17.2996 179.466 17.5504 180.619C17.8514 181.873 17.3999 178.914 17.3999 178.914L14.1898 171.994Z" fill="url(#paint45_linear_11_236)"/>
<path d="M13.3874 161.665C13.3874 161.665 13.2871 161.665 13.3373 161.665C13.889 162.617 15.2935 166.98 15.5944 168.083C15.8954 169.337 15.4941 167.03 15.4941 167.03L13.3874 161.665Z" fill="url(#paint46_linear_11_236)"/>
<path d="M5.31201 161.965C5.31201 161.965 11.6822 177.36 14.0898 180.569C17.1495 184.631 14.6917 176.106 13.9895 174.602C13.2371 173.097 9.4752 164.372 5.31201 161.965Z" fill="url(#paint47_linear_11_236)"/>
<path d="M13.3874 161.665C13.3874 161.665 13.2871 161.665 13.3373 161.665C13.889 162.617 15.2935 166.98 15.5944 168.083C15.8954 169.337 15.4941 167.03 15.4941 167.03L13.3874 161.665Z" fill="url(#paint48_linear_11_236)"/>
<path d="M15.243 181.07C15.243 181.07 15.1928 181.02 15.243 181.121C15.6944 182.274 18.6538 189.394 19.0049 190.698C19.356 192.102 18.7541 188.843 18.7541 188.843L15.243 181.07Z" fill="url(#paint49_linear_11_236)"/>
<path d="M2.45264 169.888C2.45264 169.888 11.8323 186.737 14.8419 189.996C18.6038 194.158 14.9422 184.029 13.939 182.424C12.8857 180.87 6.96694 171.844 2.45264 169.888Z" fill="url(#paint50_linear_11_236)"/>
<path d="M16.2961 190.748C16.2961 190.748 16.1456 190.447 16.1958 190.598C16.6974 191.902 20.058 198.872 20.4091 200.326C20.8104 201.88 20.2587 198.521 20.2587 198.521L16.2961 190.748Z" fill="url(#paint51_linear_11_236)"/>
<path d="M2.60303 179.215C2.60303 179.215 13.0862 196.465 16.1961 199.975C20.1085 204.438 15.6443 193.256 13.9389 190.347C12.1834 187.339 7.21764 181.321 2.60303 179.215Z" fill="url(#paint52_linear_11_236)"/>
<path d="M17.701 200.777C17.701 200.777 17.5004 200.476 17.5505 200.577C18.1524 201.981 21.6134 209.402 22.0147 210.957C22.4661 212.611 21.814 209.051 21.814 209.051L17.701 200.777Z" fill="url(#paint53_linear_11_236)"/>
<path d="M4.05762 188.993C4.05762 188.993 14.5408 206.243 17.6507 209.753C21.5631 214.216 17.0989 203.034 15.3935 200.125C13.5878 197.117 8.67223 191.099 4.05762 188.993Z" fill="url(#paint54_linear_11_236)"/>
<path d="M19.1556 210.555C19.1556 210.555 18.955 210.254 19.0051 210.355C19.607 211.759 23.1683 219.481 23.5696 220.985C24.021 222.64 23.3188 218.729 23.3188 218.729L19.1556 210.555Z" fill="url(#paint55_linear_11_236)"/>
<path d="M3.60596 198.12C3.60596 198.12 15.4936 215.62 18.5533 219.13C22.4657 223.593 17.1489 211.007 15.3933 208.098C13.6377 205.19 8.22057 200.276 3.60596 198.12Z" fill="url(#paint56_linear_11_236)"/>
<path d="M19.8079 219.983C19.8079 219.983 19.7075 219.832 19.7577 219.983C20.4599 221.688 24.7736 230.814 25.2752 232.619C25.8269 234.575 25.0244 229.961 25.0244 229.961L19.8079 219.983Z" fill="url(#paint57_linear_11_236)"/>
<path d="M2.9043 209.653C2.9043 209.653 7.36844 215.871 11.9831 220.835C15.0427 224.145 18.3532 226.451 19.6574 227.605C23.9209 231.215 17.1996 220.083 15.1932 217.526C13.1367 214.868 7.51891 210.656 2.9043 209.653Z" fill="url(#paint58_linear_11_236)"/>
<path d="M20.9612 228.006C20.9612 228.006 20.8609 227.855 20.911 228.006C21.6132 229.71 26.278 239.589 26.7294 241.394C26.8298 241.845 26.278 238.034 26.278 238.034L20.9612 228.006Z" fill="url(#paint59_linear_11_236)"/>
<path d="M4.50928 219.982C4.50928 219.982 9.57532 227.003 14.6915 232.619C18.1525 236.38 21.8141 238.987 23.2687 240.291C27.9836 244.403 20.4598 231.917 18.2026 229.008C15.8953 226.05 9.57532 221.236 4.50928 219.982Z" fill="url(#paint60_linear_11_236)"/>
<path d="M6.11426 237.433C6.11426 237.433 12.6349 240.442 17.701 243.751C23.6197 247.562 24.5226 247.913 25.927 248.164C30.3911 248.866 19.9079 238.035 17.5505 236.781C15.1429 235.477 9.92633 235.076 6.11426 237.433Z" fill="url(#paint61_linear_11_236)"/>
<path d="M24.8738 241.093C24.8738 241.093 24.623 240.692 24.6731 240.742C25.0242 241.595 27.3817 245.356 27.482 246.359C27.5322 246.609 27.2814 244.654 27.2814 244.654L24.8738 241.093Z" fill="url(#paint62_linear_11_236)"/>
<path d="M26.5289 247.462C26.5289 247.462 26.3784 247.261 26.3784 247.311C26.5791 247.763 28.134 249.417 28.0838 249.969C28.0838 250.119 28.134 249.066 28.134 249.066L26.5289 247.462Z" fill="url(#paint63_linear_11_236)"/>
<path d="M28.8862 171.343C28.8862 171.343 32.598 179.767 35.0056 181.171C35.0056 181.171 34.805 175.154 28.8862 171.343Z" fill="url(#paint64_linear_11_236)"/>
<path d="M24.7231 177.009C24.7231 177.009 30.993 182.073 33.6514 182.124C33.6013 182.124 31.294 177.41 24.7231 177.009Z" fill="url(#paint65_linear_11_236)"/>
<path d="M33.6014 165.676C33.6014 165.676 32.6985 177.861 35.1563 180.619C35.1563 180.619 39.5202 172.847 33.6014 165.676Z" fill="url(#paint66_linear_11_236)"/>
<path d="M23.7202 181.572C23.7202 181.572 31.1437 188.442 33.3507 190.297C33.8523 190.748 34.2034 190.899 34.4041 190.799C35.006 190.598 34.3539 188.592 33.6517 187.288C32.799 185.634 28.7863 181.221 23.7202 181.572Z" fill="url(#paint67_linear_11_236)"/>
<path d="M34.4036 190.648C34.4036 190.648 34.3535 190.598 34.4036 190.648C34.9052 191.4 38.0151 195.662 38.316 196.565C38.6671 197.518 38.1154 195.161 38.1154 195.161L34.4036 190.648Z" fill="url(#paint68_linear_11_236)"/>
<path d="M33.551 182.073C33.551 182.073 33.4507 182.073 33.4507 182.123C34.1027 182.725 35.758 185.834 36.0589 186.687C36.4101 187.639 35.9586 185.834 35.9586 185.834L33.551 182.073Z" fill="url(#paint69_linear_11_236)"/>
<path d="M23.9209 186.035C23.9209 186.035 31.3444 196.465 34.1533 198.119C37.7647 200.226 34.9558 194.008 34.1031 193.005C33.2504 192.002 28.9368 186.185 23.9209 186.035Z" fill="url(#paint70_linear_11_236)"/>
<path d="M33.551 182.073C33.551 182.073 33.4507 182.073 33.4507 182.123C34.1027 182.725 35.758 185.834 36.0589 186.687C36.4101 187.639 35.9586 185.834 35.9586 185.834L33.551 182.073Z" fill="url(#paint71_linear_11_236)"/>
<path d="M35.5574 198.019C35.5574 198.019 35.5073 197.969 35.5574 198.019C36.1092 198.821 39.52 203.685 39.9213 204.588C40.3225 205.641 39.6705 203.084 39.6705 203.084L35.5574 198.019Z" fill="url(#paint72_linear_11_236)"/>
<path d="M20.4097 194.158C20.4097 194.158 31.4446 204.488 35.0059 205.942C39.47 207.797 35.2065 200.777 34.0027 199.824C32.7989 198.872 25.7767 193.757 20.4097 194.158Z" fill="url(#paint73_linear_11_236)"/>
<path d="M36.7611 205.892C36.7611 205.892 36.5604 205.691 36.6106 205.792C37.2125 206.694 41.1249 211.207 41.5262 212.26C41.9776 213.414 41.3255 210.756 41.3255 210.756L36.7611 205.892Z" fill="url(#paint74_linear_11_236)"/>
<path d="M20.4595 202.081C20.4595 202.081 32.7986 212.21 36.4602 213.865C41.0748 215.921 35.9084 208.299 33.9021 206.544C31.8455 204.789 25.9769 201.88 20.4595 202.081Z" fill="url(#paint75_linear_11_236)"/>
<path d="M38.266 213.915C38.266 213.915 38.0653 213.714 38.1155 213.815C38.7675 214.767 42.8806 219.631 43.332 220.735C43.8336 221.938 43.1314 219.18 43.1314 219.18L38.266 213.915Z" fill="url(#paint76_linear_11_236)"/>
<path d="M22.0645 209.903C22.0645 209.903 34.4035 220.033 38.0651 221.687C42.6797 223.743 37.5134 216.121 35.507 214.366C33.4505 212.611 27.5819 209.703 22.0645 209.903Z" fill="url(#paint77_linear_11_236)"/>
<path d="M39.8714 221.687C39.8714 221.687 39.6708 221.487 39.7209 221.587C40.373 222.54 44.5864 227.605 45.0378 228.708C45.5394 229.911 44.787 226.852 44.787 226.852L39.8714 221.687Z" fill="url(#paint78_linear_11_236)"/>
<path d="M21.4126 218.077C21.4126 218.077 35.4069 227.805 39.0184 229.46C43.633 231.516 37.4133 223.091 35.4069 221.387C33.3504 219.581 26.9301 217.826 21.4126 218.077Z" fill="url(#paint79_linear_11_236)"/>
<path d="M40.5231 229.56C40.5231 229.56 40.3726 229.46 40.473 229.56C41.2755 230.714 46.3415 236.631 46.9435 237.984C47.5955 239.439 46.6425 235.828 46.6425 235.828L40.5231 229.56Z" fill="url(#paint80_linear_11_236)"/>
<path d="M20.4595 228.307C20.4595 228.307 25.7262 231.666 31.1433 233.873C34.7548 235.327 38.6671 235.828 40.2722 236.229C45.2881 237.433 37.4132 230.864 35.0557 229.56C32.6481 228.206 25.9268 227.103 20.4595 228.307Z" fill="url(#paint81_linear_11_236)"/>
<path d="M41.777 236.029C41.777 236.029 41.6265 235.929 41.7269 236.029C42.5294 237.182 47.9967 243.601 48.5485 244.955C48.699 245.306 48.0469 242.247 48.0469 242.247L41.777 236.029Z" fill="url(#paint82_linear_11_236)"/>
<path d="M22.2148 236.53C22.2148 236.53 28.1336 240.291 34.2028 242.848C38.2657 244.553 42.6295 245.105 44.3851 245.556C50.0029 246.96 41.1247 239.589 38.4663 238.135C35.7577 236.63 28.2841 235.327 22.2148 236.53Z" fill="url(#paint83_linear_11_236)"/>
<path d="M23.9209 250.922C23.9209 250.922 31.6955 250.571 37.7146 251.122C44.787 251.724 45.8905 251.624 47.5457 251.172C52.8626 249.718 40.4733 245.105 37.6644 245.105C34.7552 245.105 28.5355 247.111 23.9209 250.922Z" fill="url(#paint84_linear_11_236)"/>
<path d="M46.3419 245.556C46.3419 245.556 46.0409 245.306 46.0911 245.356C46.5425 245.957 49.2511 248.114 49.4016 248.916C49.4517 249.117 49.1508 247.512 49.1508 247.512L46.3419 245.556Z" fill="url(#paint85_linear_11_236)"/>
<path d="M48.1976 250.27C48.1976 250.27 47.997 250.17 48.0471 250.17C48.2979 250.471 50.1036 251.223 50.1036 251.674C50.1036 251.774 50.2039 250.872 50.2039 250.872L48.1976 250.27Z" fill="url(#paint86_linear_11_236)"/>
<path d="M35.5075 171.393C35.5075 171.393 36.3602 180.669 35.6078 183.327C35.6078 183.277 33.7519 178.112 35.5075 171.393Z" fill="url(#paint87_linear_11_236)"/>
<path d="M39.5701 173.499C39.5701 173.499 37.9651 181.572 36.6609 183.277C36.6609 183.277 36.3098 177.911 39.5701 173.499Z" fill="url(#paint88_linear_11_236)"/>
<path d="M31.1935 169.587C31.1935 169.587 35.7078 179.115 35.3567 182.926C35.3567 182.926 30.5415 179.165 31.1935 169.587Z" fill="url(#paint89_linear_11_236)"/>
<path d="M41.6265 176.658C41.6265 176.658 40.0716 186.937 39.57 189.846C39.4697 190.548 39.3192 190.849 39.2189 190.949C38.8176 191.149 38.5167 189.043 38.4164 187.589C38.2659 185.634 38.8678 179.516 41.6265 176.658Z" fill="url(#paint90_linear_11_236)"/>
<path d="M39.0686 190.798C39.0686 190.798 39.1188 190.748 39.0686 190.798C39.0185 191.701 38.868 197.217 38.9683 198.119C39.1188 199.122 38.6172 196.866 38.6172 196.866L39.0686 190.798Z" fill="url(#paint91_linear_11_236)"/>
<path d="M36.661 183.176L36.7112 183.126C36.5607 184.029 36.7613 187.589 36.8616 188.492C37.0121 189.495 36.6108 187.74 36.6108 187.74L36.661 183.176Z" fill="url(#paint92_linear_11_236)"/>
<path d="M42.9809 180.469C42.9809 180.469 42.5796 193.707 41.6768 196.816C40.5231 200.777 39.9212 193.857 40.0215 192.554C40.1219 191.25 40.4228 183.728 42.9809 180.469Z" fill="url(#paint93_linear_11_236)"/>
<path d="M36.661 183.176L36.7112 183.126C36.5607 184.029 36.7613 187.589 36.8616 188.492C37.0121 189.495 36.6108 187.74 36.6108 187.74L36.661 183.176Z" fill="url(#paint94_linear_11_236)"/>
<path d="M40.9247 197.618C40.9247 197.618 40.9247 197.568 40.9247 197.618C40.8745 198.621 40.7241 204.789 40.8745 205.792C41.025 206.895 40.5234 204.388 40.5234 204.388L40.9247 197.618Z" fill="url(#paint95_linear_11_236)"/>
<path d="M47.4956 185.032C47.4956 185.032 45.1883 200.426 43.8842 203.786C42.1788 208.098 42.0784 199.624 42.3794 198.119C42.6804 196.615 44.5864 188.091 47.4956 185.032Z" fill="url(#paint96_linear_11_236)"/>
<path d="M42.9311 204.889C42.9311 204.889 42.9813 204.638 42.9813 204.739C42.9311 205.842 42.4295 212.01 42.58 213.163C42.7305 214.417 42.1787 211.809 42.1787 211.809L42.9311 204.889Z" fill="url(#paint97_linear_11_236)"/>
<path d="M50.1037 191.701C50.1037 191.701 47.044 207.747 45.7398 211.358C44.0344 215.921 44.1849 206.393 44.6363 203.685C45.0878 200.978 47.1443 194.91 50.1037 191.701Z" fill="url(#paint98_linear_11_236)"/>
<path d="M44.7866 212.461C44.7866 212.461 44.8367 212.16 44.8367 212.26C44.7866 213.464 44.285 219.982 44.4354 221.236C44.5859 222.59 44.0342 219.782 44.0342 219.782L44.7866 212.461Z" fill="url(#paint99_linear_11_236)"/>
<path d="M51.859 199.173C51.859 199.173 48.7993 215.219 47.4952 218.829C45.7898 223.392 45.9403 213.865 46.3917 211.157C46.8431 208.399 48.9498 202.332 51.859 199.173Z" fill="url(#paint100_linear_11_236)"/>
<path d="M46.5925 219.932C46.5925 219.932 46.6426 219.632 46.6426 219.732C46.5925 220.935 46.0909 227.705 46.2413 228.908C46.3918 230.262 45.7397 227.203 45.7397 227.203L46.5925 219.932Z" fill="url(#paint101_linear_11_236)"/>
<path d="M54.9188 205.491C54.9188 205.491 50.9061 222.189 49.5519 225.799C47.8465 230.362 48.2477 219.531 48.7493 216.823C49.2509 214.116 52.0096 208.65 54.9188 205.491Z" fill="url(#paint102_linear_11_236)"/>
<path d="M48.7996 226.853C48.7996 226.853 48.8498 226.702 48.7996 226.853C48.7996 228.257 48.1476 236.33 48.2479 237.784C48.3984 239.389 47.646 235.778 47.646 235.778L48.7996 226.853Z" fill="url(#paint103_linear_11_236)"/>
<path d="M58.7813 213.414C57.728 217.225 56.5242 220.935 55.0696 224.646C53.6651 228.106 51.8093 230.914 51.107 232.218C48.9001 236.33 50.8061 226 51.5585 223.442C52.4613 220.835 55.6213 215.821 58.7813 213.414Z" fill="url(#paint104_linear_11_236)"/>
<path d="M50.304 232.97C50.304 232.97 50.3542 232.82 50.304 232.97C50.304 234.374 49.6018 243.099 49.7523 244.553C49.8025 244.904 49.1504 241.996 49.1504 241.996L50.304 232.97Z" fill="url(#paint105_linear_11_236)"/>
<path d="M60.6371 221.336C60.6371 221.336 58.8313 228.156 56.524 233.973C54.9691 237.884 52.9126 241.043 52.1602 242.548C49.7024 247.161 51.8592 235.577 52.7621 232.719C53.665 229.761 57.0758 224.044 60.6371 221.336Z" fill="url(#paint106_linear_11_236)"/>
<path d="M64.4992 234.274C64.4992 234.274 60.3862 238.787 57.4268 242.949C54.016 247.813 53.364 248.415 52.3608 249.066C49.1506 251.173 54.016 239.689 55.4706 237.934C56.9754 236.179 60.8376 233.973 64.4992 234.274Z" fill="url(#paint107_linear_11_236)"/>
<path d="M51.1066 243.651C51.1066 243.651 51.1568 243.25 51.1568 243.35C51.1066 244.102 50.4545 247.562 50.605 248.364C50.6552 248.565 50.2539 247.061 50.2539 247.061L51.1066 243.651Z" fill="url(#paint108_linear_11_236)"/>
<path d="M51.7585 248.816C51.7585 248.816 51.8086 248.615 51.8086 248.665C51.7585 249.066 51.1064 250.822 51.2569 251.173C51.307 251.273 50.9058 250.571 50.9058 250.571L51.7585 248.816Z" fill="url(#paint109_linear_11_236)"/>
<path d="M73.8786 196.013L51.909 250.972L50.7554 249.969L73.8786 196.013Z" fill="url(#paint110_linear_11_236)"/>
<path d="M80.6503 189.244C80.6503 189.244 76.2364 195.311 73.8789 195.963C73.9291 196.013 74.7818 191.149 80.6503 189.244Z" fill="url(#paint111_linear_11_236)"/>
<path d="M83.9105 194.71C83.9105 194.71 77.5403 197.518 75.0825 197.066C75.0825 197.066 77.7911 193.707 83.9105 194.71Z" fill="url(#paint112_linear_11_236)"/>
<path d="M76.9384 183.728C76.9384 183.728 76.4368 193.807 73.8285 195.562C73.8285 195.512 70.6685 188.341 76.9384 183.728Z" fill="url(#paint113_linear_11_236)"/>
<path d="M84.3117 198.671C84.3117 198.671 76.6876 202.783 74.4304 203.836C73.8787 204.087 73.5777 204.137 73.4273 204.037C72.8755 203.736 73.7282 202.231 74.4806 201.329C75.4838 200.125 79.6971 197.317 84.3117 198.671Z" fill="url(#paint114_linear_11_236)"/>
<path d="M73.4276 203.836C73.4276 203.836 73.4778 203.786 73.4276 203.836C72.8759 204.337 69.5152 207.196 69.114 207.848C68.6625 208.55 69.4149 206.744 69.4149 206.744L73.4276 203.836Z" fill="url(#paint115_linear_11_236)"/>
<path d="M75.1329 197.016C75.1329 197.016 75.2332 197.016 75.2332 197.067C74.5811 197.418 72.6751 199.624 72.2738 200.226C71.8224 200.928 72.4243 199.524 72.4243 199.524L75.1329 197.016Z" fill="url(#paint116_linear_11_236)"/>
<path d="M83.6098 202.231C83.6098 202.231 75.5844 209.201 72.7755 209.954C69.2142 210.956 72.5247 206.443 73.3774 205.842C74.2802 205.24 78.9952 201.329 83.6098 202.231Z" fill="url(#paint117_linear_11_236)"/>
<path d="M75.1329 197.016C75.1329 197.016 75.2332 197.016 75.2332 197.067C74.5811 197.418 72.6751 199.624 72.2738 200.226C71.8224 200.928 72.4243 199.524 72.4243 199.524L75.1329 197.016Z" fill="url(#paint118_linear_11_236)"/>
<path d="M71.5213 209.603C71.5213 209.603 71.5715 209.552 71.5213 209.603C70.9194 210.154 67.2076 213.363 66.7562 214.065C66.2546 214.818 67.1575 212.912 67.1575 212.912L71.5213 209.603Z" fill="url(#paint119_linear_11_236)"/>
<path d="M86.0173 209.552C86.0173 209.552 74.6312 215.67 71.2204 216.121C66.8566 216.723 71.6217 211.859 72.8255 211.358C74.0293 210.906 81.0516 208.148 86.0173 209.552Z" fill="url(#paint120_linear_11_236)"/>
<path d="M69.5653 215.77C69.5653 215.77 69.7659 215.67 69.7158 215.72C69.0135 216.322 64.9507 219.18 64.4491 219.983C63.8973 220.835 64.8002 218.829 64.8002 218.829L69.5653 215.77Z" fill="url(#paint121_linear_11_236)"/>
<path d="M85.0644 216.021C85.0644 216.021 72.4745 221.738 68.9132 222.289C64.3989 223.041 70.0669 217.877 72.1234 216.874C74.23 215.871 79.9983 214.717 85.0644 216.021Z" fill="url(#paint122_linear_11_236)"/>
<path d="M67.2579 221.989C67.2579 221.989 67.4585 221.888 67.4084 221.938C66.7062 222.59 62.3925 225.699 61.8408 226.552C61.2389 227.454 62.242 225.298 62.242 225.298L67.2579 221.989Z" fill="url(#paint123_linear_11_236)"/>
<path d="M82.7069 222.038C82.7069 222.038 70.117 227.755 66.5558 228.307C62.0415 229.059 67.7094 223.894 69.7659 222.891C71.8726 221.938 77.6409 220.735 82.7069 222.038Z" fill="url(#paint124_linear_11_236)"/>
<path d="M64.9005 228.006C64.9005 228.006 65.1012 227.906 65.051 227.956C64.3488 228.608 59.8846 231.817 59.383 232.669C58.7811 233.572 59.8345 231.215 59.8345 231.215L64.9005 228.006Z" fill="url(#paint125_linear_11_236)"/>
<path d="M82.406 228.808C82.406 228.808 68.4117 233.873 64.8504 234.474C60.3361 235.226 67.0072 229.61 69.1139 228.657C71.2206 227.604 77.34 227.454 82.406 228.808Z" fill="url(#paint126_linear_11_236)"/>
<path d="M63.3959 234.224C63.3959 234.224 63.5463 234.174 63.446 234.274C62.5933 235.076 57.2263 238.837 56.5241 239.79C55.7717 240.843 57.0257 238.085 57.0257 238.085L63.3959 234.224Z" fill="url(#paint127_linear_11_236)"/>
<path d="M82.1549 237.332C78.6939 238.386 75.1828 239.138 71.6215 239.689C68.1104 240.141 64.3986 239.739 62.8939 239.739C58.0786 239.689 66.1542 235.979 68.4615 235.377C70.8691 234.775 77.2393 235.277 82.1549 237.332Z" fill="url(#paint128_linear_11_236)"/>
<path d="M61.5401 239.238C61.5401 239.238 61.6906 239.188 61.5902 239.288C60.7375 240.091 54.9191 244.152 54.3172 245.155C54.1667 245.406 55.0696 243.049 55.0696 243.049L61.5401 239.238Z" fill="url(#paint129_linear_11_236)"/>
<path d="M79.5971 243.701C79.5971 243.701 73.6784 245.556 67.7596 246.359C63.7971 246.91 59.7342 246.509 58.0288 246.509C52.6618 246.509 61.7405 242.297 64.3488 241.645C67.0574 240.943 74.1298 241.444 79.5971 243.701Z" fill="url(#paint130_linear_11_236)"/>
<path d="M76.4367 254.983C76.4367 254.983 69.264 253.128 63.6462 252.326C57.0754 251.373 56.0722 251.072 54.5674 250.37C49.8023 248.114 61.7903 246.91 64.3986 247.462C67.057 248.063 72.5745 250.972 76.4367 254.983Z" fill="url(#paint131_linear_11_236)"/>
<path d="M56.2731 246.058C56.2731 246.058 56.574 245.907 56.5239 245.957C56.0725 246.359 53.2636 247.562 53.0629 248.164C53.0128 248.314 53.414 247.061 53.414 247.061L56.2731 246.058Z" fill="url(#paint132_linear_11_236)"/>
<path d="M53.9656 249.518C53.9656 249.518 54.1662 249.468 54.1161 249.468C53.8653 249.668 52.0596 249.869 52.0596 250.27C52.0596 250.37 52.0596 249.568 52.0596 249.568L53.9656 249.518Z" fill="url(#paint133_linear_11_236)"/>
<path d="M74.531 187.94C74.531 187.94 72.7253 195.311 73.1265 197.618C73.1265 197.618 75.4339 193.807 74.531 187.94Z" fill="url(#paint134_linear_11_236)"/>
<path d="M70.5684 188.843C70.5684 188.843 71.1201 195.713 72.1734 197.367C72.675 194.459 72.0731 191.4 70.5684 188.843Z" fill="url(#paint135_linear_11_236)"/>
<path d="M78.744 187.339C78.744 187.339 73.4773 194.158 73.4271 197.368C73.377 197.368 78.2926 195.312 78.744 187.339Z" fill="url(#paint136_linear_11_236)"/>
<path d="M68.311 191.049C68.311 191.049 68.612 199.724 68.7625 202.231C68.8126 202.833 68.8628 203.084 69.0133 203.184C69.3644 203.435 69.866 201.78 70.1168 200.627C70.4177 198.972 70.5682 193.857 68.311 191.049Z" fill="url(#paint137_linear_11_236)"/>
<path d="M69.1136 203.034C69.1136 203.034 69.1136 202.934 69.1136 203.034C69.0133 203.786 68.5619 208.299 68.3612 209.001C68.1104 209.753 68.8628 208.048 68.8628 208.048L69.1136 203.034Z" fill="url(#paint138_linear_11_236)"/>
<path d="M72.1736 197.267L72.1234 197.217C72.1736 197.969 71.6218 200.827 71.371 201.579C71.1202 202.332 71.672 201.028 71.672 201.028L72.1736 197.267Z" fill="url(#paint139_linear_11_236)"/>
<path d="M66.6058 193.857C66.6058 193.857 65.5023 204.688 65.9537 207.446C66.5556 210.906 67.9099 205.39 67.96 204.287C68.0102 203.184 68.6121 197.016 66.6058 193.857Z" fill="url(#paint140_linear_11_236)"/>
<path d="M72.1736 197.267L72.1234 197.217C72.1736 197.969 71.6218 200.827 71.371 201.579C71.1202 202.332 71.672 201.028 71.672 201.028L72.1736 197.267Z" fill="url(#paint141_linear_11_236)"/>
<path d="M66.6055 208.199C66.6055 208.199 66.6055 208.148 66.6055 208.199C66.5052 209.051 65.9535 214.065 65.7529 214.868C65.5021 215.72 66.2043 213.765 66.2043 213.765L66.6055 208.199Z" fill="url(#paint142_linear_11_236)"/>
<path d="M61.8911 196.615C61.8911 196.615 62.2924 209.553 63.1451 212.611C64.2486 216.472 65.3019 209.603 65.1514 208.299C65.001 206.995 64.2987 199.674 61.8911 196.615Z" fill="url(#paint143_linear_11_236)"/>
<path d="M63.9473 213.664C63.9473 213.664 63.9473 213.414 63.8972 213.514C63.7968 214.417 63.5962 219.531 63.3454 220.434C63.0946 221.387 63.8972 219.431 63.8972 219.431L63.9473 213.664Z" fill="url(#paint144_linear_11_236)"/>
<path d="M58.7808 201.479C58.7808 201.479 59.7839 215.169 60.6366 218.328C61.69 222.44 62.643 214.617 62.4925 212.361C62.342 210.054 61.1382 204.688 58.7808 201.479Z" fill="url(#paint145_linear_11_236)"/>
<path d="M61.3891 219.481C61.3891 219.481 61.3891 219.23 61.339 219.331C61.2386 220.283 60.9878 225.749 60.6869 226.702C60.3859 227.755 61.2386 225.599 61.2386 225.599L61.3891 219.481Z" fill="url(#paint146_linear_11_236)"/>
<path d="M56.3232 207.196C56.3232 207.196 57.3264 220.885 58.1791 224.044C59.2325 228.156 60.1855 220.333 60.035 218.077C59.8845 215.77 58.6305 210.405 56.3232 207.196Z" fill="url(#paint147_linear_11_236)"/>
<path d="M58.8811 225.198C58.8811 225.198 58.8811 224.947 58.8309 225.047C58.7306 226 58.4297 231.616 58.1789 232.569C57.8779 233.622 58.8309 231.265 58.8309 231.265L58.8811 225.198Z" fill="url(#paint148_linear_11_236)"/>
<path d="M52.812 211.759C52.812 211.759 54.6679 226.15 55.5206 229.36C56.5739 233.471 57.4266 224.546 57.2761 222.239C57.0755 219.932 55.1193 214.918 52.812 211.759Z" fill="url(#paint149_linear_11_236)"/>
<path d="M56.0223 230.363C56.0223 230.363 56.0223 230.212 56.0223 230.363C55.8718 231.516 55.5709 238.185 55.2699 239.338C54.9689 240.592 56.0223 237.834 56.0223 237.834V230.363Z" fill="url(#paint150_linear_11_236)"/>
<path d="M48.2979 217.375C48.8496 220.685 49.5518 223.994 50.4547 227.253C51.3575 230.362 52.762 233.02 53.2636 234.224C54.8185 238.035 54.2166 229.209 53.8153 227.003C53.3137 224.696 51.0064 219.983 48.2979 217.375Z" fill="url(#paint151_linear_11_236)"/>
<path d="M53.9662 235.026C53.9662 235.026 53.9662 234.875 53.9662 235.026C53.8157 236.179 53.4646 243.4 53.1636 244.553C53.1135 244.804 54.0163 242.598 54.0163 242.598L53.9662 235.026Z" fill="url(#paint152_linear_11_236)"/>
<path d="M45.6899 223.443C46.2918 227.153 47.0944 230.914 48.0976 234.575C49.1007 238.085 50.6557 241.094 51.2074 242.447C52.963 246.71 52.2608 236.831 51.7592 234.324C51.2576 231.716 48.6995 226.401 45.6899 223.443Z" fill="url(#paint153_linear_11_236)"/>
<path d="M40.6738 233.221C40.6738 233.221 43.9843 237.734 46.2415 241.745C48.8999 246.409 49.3513 247.01 50.2542 247.763C53.0129 250.119 49.7526 239.79 48.5989 238.085C47.4453 236.28 44.0846 233.722 40.6738 233.221Z" fill="url(#paint154_linear_11_236)"/>
<path d="M52.0599 243.551C52.0599 243.45 52.0599 243.35 52.0097 243.3C51.9596 243.902 52.2104 246.91 51.9596 247.462C51.9094 247.612 52.411 246.459 52.411 246.459L52.0599 243.551Z" fill="url(#paint155_linear_11_236)"/>
<path d="M50.9061 247.612C50.9061 247.612 50.856 247.412 50.856 247.462C50.856 247.763 51.3074 249.367 51.1068 249.618C51.0566 249.668 51.508 249.167 51.508 249.167L50.9061 247.612Z" fill="url(#paint156_linear_11_236)"/>
<defs>
<linearGradient id="paint0_linear_11_236" x1="95.3807" y1="237.219" x2="390.365" y2="237.219" gradientUnits="userSpaceOnUse">
<stop stop-color="#E5A4ED"/>
<stop offset="1" stop-color="#7A5BF5"/>
</linearGradient>
<linearGradient id="paint1_linear_11_236" x1="308.379" y1="197.065" x2="368.027" y2="197.065" gradientUnits="userSpaceOnUse">
<stop stop-color="#E5A4ED"/>
<stop offset="1" stop-color="#7A5BF5"/>
</linearGradient>
<linearGradient id="paint2_linear_11_236" x1="111.456" y1="161.802" x2="374.596" y2="161.802" gradientUnits="userSpaceOnUse">
<stop stop-color="#E5A4ED"/>
<stop offset="1" stop-color="#7A5BF5"/>
</linearGradient>
<linearGradient id="paint3_linear_11_236" x1="109.796" y1="178.375" x2="374.028" y2="178.375" gradientUnits="userSpaceOnUse">
<stop stop-color="#E5A4ED"/>
<stop offset="1" stop-color="#7A5BF5"/>
</linearGradient>
<linearGradient id="paint4_linear_11_236" x1="109.796" y1="193.55" x2="374.028" y2="193.55" gradientUnits="userSpaceOnUse">
<stop stop-color="#E5A4ED"/>
<stop offset="1" stop-color="#7A5BF5"/>
</linearGradient>
<linearGradient id="paint5_linear_11_236" x1="109.796" y1="210.974" x2="374.028" y2="210.974" gradientUnits="userSpaceOnUse">
<stop stop-color="#E5A4ED"/>
<stop offset="1" stop-color="#7A5BF5"/>
</linearGradient>
<linearGradient id="paint6_linear_11_236" x1="109.796" y1="224.599" x2="374.028" y2="224.599" gradientUnits="userSpaceOnUse">
<stop stop-color="#E5A4ED"/>
<stop offset="1" stop-color="#7A5BF5"/>
</linearGradient>
<linearGradient id="paint7_linear_11_236" x1="111.172" y1="268.705" x2="194.989" y2="268.705" gradientUnits="userSpaceOnUse">
<stop stop-color="#E5A4ED"/>
<stop offset="1" stop-color="#7A5BF5"/>
</linearGradient>
<linearGradient id="paint8_linear_11_236" x1="239.964" y1="269.076" x2="378.296" y2="269.076" gradientUnits="userSpaceOnUse">
<stop stop-color="#E5A4ED"/>
<stop offset="1" stop-color="#7A5BF5"/>
</linearGradient>
<linearGradient id="paint9_linear_11_236" x1="293.356" y1="225.465" x2="192.14" y2="225.465" gradientUnits="userSpaceOnUse">
<stop stop-color="#4B45BD"/>
<stop offset="1" stop-color="#58CAEA"/>
</linearGradient>
<linearGradient id="paint10_linear_11_236" x1="226.387" y1="153.891" x2="282.847" y2="153.891" gradientUnits="userSpaceOnUse">
<stop stop-color="#F87B58"/>
<stop offset="0.5" stop-color="#F8C548"/>
<stop offset="1" stop-color="#F89C51"/>
</linearGradient>
<linearGradient id="paint11_linear_11_236" x1="202.43" y1="180.217" x2="288.335" y2="180.217" gradientUnits="userSpaceOnUse">
<stop stop-color="#E5A4ED"/>
<stop offset="1" stop-color="#7A5BF5"/>
</linearGradient>
<linearGradient id="paint12_linear_11_236" x1="219.641" y1="143.738" x2="268.036" y2="143.738" gradientUnits="userSpaceOnUse">
<stop stop-color="#4B45BD"/>
<stop offset="1" stop-color="#58CAEA"/>
</linearGradient>
<linearGradient id="paint13_linear_11_236" x1="243.464" y1="205.284" x2="239.151" y2="205.284" gradientUnits="userSpaceOnUse">
<stop stop-color="#59C2E9"/>
<stop offset="1" stop-color="#5BD3EF"/>
</linearGradient>
<linearGradient id="paint14_linear_11_236" x1="372.736" y1="205.561" x2="329.158" y2="226.409" gradientUnits="userSpaceOnUse">
<stop stop-color="#7A5BF5"/>
<stop offset="1" stop-color="#CD94EF"/>
</linearGradient>
<linearGradient id="paint15_linear_11_236" x1="365.915" y1="200.322" x2="336.952" y2="214.18" gradientUnits="userSpaceOnUse">
<stop stop-color="#7A5BF5"/>
<stop offset="1" stop-color="#E5A4ED"/>
</linearGradient>
<linearGradient id="paint16_linear_11_236" x1="41.1181" y1="221.94" x2="50.5678" y2="198.018" gradientUnits="userSpaceOnUse">
<stop stop-color="#58CAEA"/>
<stop offset="1" stop-color="#4C4CBF"/>
</linearGradient>
<linearGradient id="paint17_linear_11_236" x1="14.7129" y1="204.779" x2="29.4362" y2="204.628" gradientUnits="userSpaceOnUse">
<stop stop-color="#58CAEA"/>
<stop offset="1" stop-color="#4C4CBF"/>
</linearGradient>
<linearGradient id="paint18_linear_11_236" x1="13.5293" y1="150.895" x2="16.4956" y2="150.865" gradientUnits="userSpaceOnUse">
<stop stop-color="#58CAEA"/>
<stop offset="1" stop-color="#4C4CBF"/>
</linearGradient>
<linearGradient id="paint19_linear_11_236" x1="16.0998" y1="153.277" x2="23.5819" y2="153.2" gradientUnits="userSpaceOnUse">
<stop stop-color="#58CAEA"/>
<stop offset="1" stop-color="#4C4CBF"/>
</linearGradient>
<linearGradient id="paint20_linear_11_236" x1="8.09739" y1="148.594" x2="13.9554" y2="148.534" gradientUnits="userSpaceOnUse">
<stop stop-color="#58CAEA"/>
<stop offset="1" stop-color="#4C4CBF"/>
</linearGradient>
<linearGradient id="paint21_linear_11_236" x1="18.3556" y1="161.081" x2="26.7654" y2="160.994" gradientUnits="userSpaceOnUse">
<stop stop-color="#58CAEA"/>
<stop offset="1" stop-color="#4C4CBF"/>
</linearGradient>
<linearGradient id="paint22_linear_11_236" x1="17.0844" y1="173.982" x2="19.1927" y2="173.961" gradientUnits="userSpaceOnUse">
<stop stop-color="#58CAEA"/>
<stop offset="1" stop-color="#4C4CBF"/>
</linearGradient>
<linearGradient id="paint23_linear_11_236" x1="15.1541" y1="162.233" x2="16.3105" y2="162.221" gradientUnits="userSpaceOnUse">
<stop stop-color="#58CAEA"/>
<stop offset="1" stop-color="#4C4CBF"/>
</linearGradient>
<linearGradient id="paint24_linear_11_236" x1="20.1423" y1="168.601" x2="28.5323" y2="168.514" gradientUnits="userSpaceOnUse">
<stop stop-color="#58CAEA"/>
<stop offset="1" stop-color="#4C4CBF"/>
</linearGradient>
<linearGradient id="paint25_linear_11_236" x1="15.1541" y1="162.233" x2="16.3105" y2="162.221" gradientUnits="userSpaceOnUse">
<stop stop-color="#58CAEA"/>
<stop offset="1" stop-color="#4C4CBF"/>
</linearGradient>
<linearGradient id="paint26_linear_11_236" x1="19.0056" y1="183.854" x2="21.2536" y2="183.831" gradientUnits="userSpaceOnUse">
<stop stop-color="#58CAEA"/>
<stop offset="1" stop-color="#4C4CBF"/>
</linearGradient>
<linearGradient id="paint27_linear_11_236" x1="22.6678" y1="177.243" x2="36.0625" y2="177.105" gradientUnits="userSpaceOnUse">
<stop stop-color="#58CAEA"/>
<stop offset="1" stop-color="#4C4CBF"/>
</linearGradient>
<linearGradient id="paint28_linear_11_236" x1="20.6786" y1="193.752" x2="23.6543" y2="193.721" gradientUnits="userSpaceOnUse">
<stop stop-color="#58CAEA"/>
<stop offset="1" stop-color="#4C4CBF"/>
</linearGradient>
<linearGradient id="paint29_linear_11_236" x1="24.9035" y1="187.103" x2="39.5463" y2="186.952" gradientUnits="userSpaceOnUse">
<stop stop-color="#58CAEA"/>
<stop offset="1" stop-color="#4C4CBF"/>
</linearGradient>
<linearGradient id="paint30_linear_11_236" x1="22.5131" y1="204.413" x2="25.579" y2="204.381" gradientUnits="userSpaceOnUse">
<stop stop-color="#58CAEA"/>
<stop offset="1" stop-color="#4C4CBF"/>
</linearGradient>
<linearGradient id="paint31_linear_11_236" x1="26.6989" y1="197.222" x2="41.3417" y2="197.071" gradientUnits="userSpaceOnUse">
<stop stop-color="#58CAEA"/>
<stop offset="1" stop-color="#4C4CBF"/>
</linearGradient>
<linearGradient id="paint32_linear_11_236" x1="24.1791" y1="214.628" x2="27.3705" y2="214.595" gradientUnits="userSpaceOnUse">
<stop stop-color="#58CAEA"/>
<stop offset="1" stop-color="#4C4CBF"/>
</linearGradient>
<linearGradient id="paint33_linear_11_236" x1="29.403" y1="206.62" x2="45.7183" y2="206.452" gradientUnits="userSpaceOnUse">
<stop stop-color="#58CAEA"/>
<stop offset="1" stop-color="#4C4CBF"/>
</linearGradient>
<linearGradient id="paint34_linear_11_236" x1="26.1057" y1="225.537" x2="30.1437" y2="225.495" gradientUnits="userSpaceOnUse">
<stop stop-color="#58CAEA"/>
<stop offset="1" stop-color="#4C4CBF"/>
</linearGradient>
<linearGradient id="paint35_linear_11_236" x1="31.2657" y1="216.651" x2="51.4043" y2="216.443" gradientUnits="userSpaceOnUse">
<stop stop-color="#58CAEA"/>
<stop offset="1" stop-color="#4C4CBF"/>
</linearGradient>
<linearGradient id="paint36_linear_11_236" x1="27.5562" y1="234.004" x2="31.6869" y2="233.962" gradientUnits="userSpaceOnUse">
<stop stop-color="#58CAEA"/>
<stop offset="1" stop-color="#4C4CBF"/>
</linearGradient>
<linearGradient id="paint37_linear_11_236" x1="30.7235" y1="228.709" x2="53.1718" y2="228.477" gradientUnits="userSpaceOnUse">
<stop stop-color="#58CAEA"/>
<stop offset="1" stop-color="#4C4CBF"/>
</linearGradient>
<linearGradient id="paint38_linear_11_236" x1="30.1288" y1="240.859" x2="57.704" y2="240.575" gradientUnits="userSpaceOnUse">
<stop stop-color="#58CAEA"/>
<stop offset="1" stop-color="#4C4CBF"/>
</linearGradient>
<linearGradient id="paint39_linear_11_236" x1="28.7181" y1="243.297" x2="31.1215" y2="243.272" gradientUnits="userSpaceOnUse">
<stop stop-color="#58CAEA"/>
<stop offset="1" stop-color="#4C4CBF"/>
</linearGradient>
<linearGradient id="paint40_linear_11_236" x1="29.113" y1="248.553" x2="31.1534" y2="248.532" gradientUnits="userSpaceOnUse">
<stop stop-color="#58CAEA"/>
<stop offset="1" stop-color="#4C4CBF"/>
</linearGradient>
<linearGradient id="paint41_linear_11_236" x1="9.3493" y1="154.192" x2="14.4638" y2="154.139" gradientUnits="userSpaceOnUse">
<stop stop-color="#58CAEA"/>
<stop offset="1" stop-color="#4C4CBF"/>
</linearGradient>
<linearGradient id="paint42_linear_11_236" x1="5.87813" y1="156.841" x2="13.3269" y2="156.764" gradientUnits="userSpaceOnUse">
<stop stop-color="#58CAEA"/>
<stop offset="1" stop-color="#4C4CBF"/>
</linearGradient>
<linearGradient id="paint43_linear_11_236" x1="13.0897" y1="151.63" x2="15.8237" y2="151.602" gradientUnits="userSpaceOnUse">
<stop stop-color="#58CAEA"/>
<stop offset="1" stop-color="#4C4CBF"/>
</linearGradient>
<linearGradient id="paint44_linear_11_236" x1="5.12909" y1="164.496" x2="14.2617" y2="164.402" gradientUnits="userSpaceOnUse">
<stop stop-color="#58CAEA"/>
<stop offset="1" stop-color="#4C4CBF"/>
</linearGradient>
<linearGradient id="paint45_linear_11_236" x1="14.1831" y1="176.452" x2="17.5855" y2="176.417" gradientUnits="userSpaceOnUse">
<stop stop-color="#58CAEA"/>
<stop offset="1" stop-color="#4C4CBF"/>
</linearGradient>
<linearGradient id="paint46_linear_11_236" x1="13.3068" y1="165.041" x2="15.6112" y2="165.018" gradientUnits="userSpaceOnUse">
<stop stop-color="#58CAEA"/>
<stop offset="1" stop-color="#4C4CBF"/>
</linearGradient>
<linearGradient id="paint47_linear_11_236" x1="5.38499" y1="171.858" x2="15.4545" y2="171.754" gradientUnits="userSpaceOnUse">
<stop stop-color="#58CAEA"/>
<stop offset="1" stop-color="#4C4CBF"/>
</linearGradient>
<linearGradient id="paint48_linear_11_236" x1="13.3068" y1="165.041" x2="15.6112" y2="165.018" gradientUnits="userSpaceOnUse">
<stop stop-color="#58CAEA"/>
<stop offset="1" stop-color="#4C4CBF"/>
</linearGradient>
<linearGradient id="paint49_linear_11_236" x1="15.2585" y1="186.052" x2="19.0329" y2="186.013" gradientUnits="userSpaceOnUse">
<stop stop-color="#58CAEA"/>
<stop offset="1" stop-color="#4C4CBF"/>
</linearGradient>
<linearGradient id="paint50_linear_11_236" x1="2.52686" y1="180.515" x2="16.364" y2="180.372" gradientUnits="userSpaceOnUse">
<stop stop-color="#58CAEA"/>
<stop offset="1" stop-color="#4C4CBF"/>
</linearGradient>
<linearGradient id="paint51_linear_11_236" x1="16.2196" y1="195.672" x2="20.4731" y2="195.629" gradientUnits="userSpaceOnUse">
<stop stop-color="#58CAEA"/>
<stop offset="1" stop-color="#4C4CBF"/>
</linearGradient>
<linearGradient id="paint52_linear_11_236" x1="2.70294" y1="190.154" x2="17.6404" y2="190" gradientUnits="userSpaceOnUse">
<stop stop-color="#58CAEA"/>
<stop offset="1" stop-color="#4C4CBF"/>
</linearGradient>
<linearGradient id="paint53_linear_11_236" x1="17.6275" y1="205.985" x2="22.127" y2="205.939" gradientUnits="userSpaceOnUse">
<stop stop-color="#58CAEA"/>
<stop offset="1" stop-color="#4C4CBF"/>
</linearGradient>
<linearGradient id="paint54_linear_11_236" x1="4.13618" y1="199.926" x2="19.0736" y2="199.772" gradientUnits="userSpaceOnUse">
<stop stop-color="#58CAEA"/>
<stop offset="1" stop-color="#4C4CBF"/>
</linearGradient>
<linearGradient id="paint55_linear_11_236" x1="19.0619" y1="215.87" x2="23.6485" y2="215.823" gradientUnits="userSpaceOnUse">
<stop stop-color="#58CAEA"/>
<stop offset="1" stop-color="#4C4CBF"/>
</linearGradient>
<linearGradient id="paint56_linear_11_236" x1="3.69306" y1="209.172" x2="19.8262" y2="209.006" gradientUnits="userSpaceOnUse">
<stop stop-color="#58CAEA"/>
<stop offset="1" stop-color="#4C4CBF"/>
</linearGradient>
<linearGradient id="paint57_linear_11_236" x1="19.7975" y1="226.502" x2="25.4158" y2="226.444" gradientUnits="userSpaceOnUse">
<stop stop-color="#58CAEA"/>
<stop offset="1" stop-color="#4C4CBF"/>
</linearGradient>
<linearGradient id="paint58_linear_11_236" x1="3.00089" y1="219.041" x2="20.9291" y2="218.856" gradientUnits="userSpaceOnUse">
<stop stop-color="#58CAEA"/>
<stop offset="1" stop-color="#4C4CBF"/>
</linearGradient>
<linearGradient id="paint59_linear_11_236" x1="20.9393" y1="234.692" x2="26.6551" y2="234.633" gradientUnits="userSpaceOnUse">
<stop stop-color="#58CAEA"/>
<stop offset="1" stop-color="#4C4CBF"/>
</linearGradient>
<linearGradient id="paint60_linear_11_236" x1="4.58106" y1="230.647" x2="24.6558" y2="230.441" gradientUnits="userSpaceOnUse">
<stop stop-color="#58CAEA"/>
<stop offset="1" stop-color="#4C4CBF"/>
</linearGradient>
<linearGradient id="paint61_linear_11_236" x1="6.15956" y1="242.087" x2="26.9572" y2="241.873" gradientUnits="userSpaceOnUse">
<stop stop-color="#58CAEA"/>
<stop offset="1" stop-color="#4C4CBF"/>
</linearGradient>
<linearGradient id="paint62_linear_11_236" x1="24.6784" y1="243.552" x2="27.4497" y2="243.523" gradientUnits="userSpaceOnUse">
<stop stop-color="#58CAEA"/>
<stop offset="1" stop-color="#4C4CBF"/>
</linearGradient>
<linearGradient id="paint63_linear_11_236" x1="26.392" y1="248.629" x2="28.1795" y2="248.61" gradientUnits="userSpaceOnUse">
<stop stop-color="#58CAEA"/>
<stop offset="1" stop-color="#4C4CBF"/>
</linearGradient>
<linearGradient id="paint64_linear_11_236" x1="31.2191" y1="176.552" x2="33.302" y2="175.636" gradientUnits="userSpaceOnUse">
<stop stop-color="#58CAEA"/>
<stop offset="1" stop-color="#4C4CBF"/>
</linearGradient>
<linearGradient id="paint65_linear_11_236" x1="26.3992" y1="180.785" x2="31.9838" y2="178.331" gradientUnits="userSpaceOnUse">
<stop stop-color="#58CAEA"/>
<stop offset="1" stop-color="#4C4CBF"/>
</linearGradient>
<linearGradient id="paint66_linear_11_236" x1="32.1503" y1="174.136" x2="36.9798" y2="172.013" gradientUnits="userSpaceOnUse">
<stop stop-color="#58CAEA"/>
<stop offset="1" stop-color="#4C4CBF"/>
</linearGradient>
<linearGradient id="paint67_linear_11_236" x1="26.2881" y1="187.405" x2="32.5385" y2="184.657" gradientUnits="userSpaceOnUse">
<stop stop-color="#58CAEA"/>
<stop offset="1" stop-color="#4C4CBF"/>
</linearGradient>
<linearGradient id="paint68_linear_11_236" x1="35.8683" y1="193.936" x2="37.3414" y2="193.289" gradientUnits="userSpaceOnUse">
<stop stop-color="#58CAEA"/>
<stop offset="1" stop-color="#4C4CBF"/>
</linearGradient>
<linearGradient id="paint69_linear_11_236" x1="34.6215" y1="184.591" x2="35.3886" y2="184.254" gradientUnits="userSpaceOnUse">
<stop stop-color="#58CAEA"/>
<stop offset="1" stop-color="#4C4CBF"/>
</linearGradient>
<linearGradient id="paint70_linear_11_236" x1="27.1968" y1="193.386" x2="33.3521" y2="190.681" gradientUnits="userSpaceOnUse">
<stop stop-color="#58CAEA"/>
<stop offset="1" stop-color="#4C4CBF"/>
</linearGradient>
<linearGradient id="paint71_linear_11_236" x1="34.6215" y1="184.591" x2="35.3886" y2="184.254" gradientUnits="userSpaceOnUse">
<stop stop-color="#58CAEA"/>
<stop offset="1" stop-color="#4C4CBF"/>
</linearGradient>
<linearGradient id="paint72_linear_11_236" x1="37.1968" y1="201.683" x2="38.7615" y2="200.996" gradientUnits="userSpaceOnUse">
<stop stop-color="#58CAEA"/>
<stop offset="1" stop-color="#4C4CBF"/>
</linearGradient>
<linearGradient id="paint73_linear_11_236" x1="23.9244" y1="202.161" x2="33.9143" y2="197.77" gradientUnits="userSpaceOnUse">
<stop stop-color="#58CAEA"/>
<stop offset="1" stop-color="#4C4CBF"/>
</linearGradient>
<linearGradient id="paint74_linear_11_236" x1="38.2655" y1="209.579" x2="40.3897" y2="208.645" gradientUnits="userSpaceOnUse">
<stop stop-color="#58CAEA"/>
<stop offset="1" stop-color="#4C4CBF"/>
</linearGradient>
<linearGradient id="paint75_linear_11_236" x1="24.1418" y1="210.38" x2="35.0688" y2="205.577" gradientUnits="userSpaceOnUse">
<stop stop-color="#58CAEA"/>
<stop offset="1" stop-color="#4C4CBF"/>
</linearGradient>
<linearGradient id="paint76_linear_11_236" x1="39.9154" y1="217.815" x2="42.0982" y2="216.856" gradientUnits="userSpaceOnUse">
<stop stop-color="#58CAEA"/>
<stop offset="1" stop-color="#4C4CBF"/>
</linearGradient>
<linearGradient id="paint77_linear_11_236" x1="25.7348" y1="218.204" x2="36.6618" y2="213.401" gradientUnits="userSpaceOnUse">
<stop stop-color="#58CAEA"/>
<stop offset="1" stop-color="#4C4CBF"/>
</linearGradient>
<linearGradient id="paint78_linear_11_236" x1="41.5368" y1="225.699" x2="43.8193" y2="224.696" gradientUnits="userSpaceOnUse">
<stop stop-color="#58CAEA"/>
<stop offset="1" stop-color="#4C4CBF"/>
</linearGradient>
<linearGradient id="paint79_linear_11_236" x1="25.1165" y1="226.425" x2="37.328" y2="221.057" gradientUnits="userSpaceOnUse">
<stop stop-color="#58CAEA"/>
<stop offset="1" stop-color="#4C4CBF"/>
</linearGradient>
<linearGradient id="paint80_linear_11_236" x1="42.6325" y1="234.434" x2="45.5365" y2="233.158" gradientUnits="userSpaceOnUse">
<stop stop-color="#58CAEA"/>
<stop offset="1" stop-color="#4C4CBF"/>
</linearGradient>
<linearGradient id="paint81_linear_11_236" x1="23.6277" y1="235.553" x2="38.8647" y2="228.855" gradientUnits="userSpaceOnUse">
<stop stop-color="#58CAEA"/>
<stop offset="1" stop-color="#4C4CBF"/>
</linearGradient>
<linearGradient id="paint82_linear_11_236" x1="43.9323" y1="240.983" x2="46.9031" y2="239.677" gradientUnits="userSpaceOnUse">
<stop stop-color="#58CAEA"/>
<stop offset="1" stop-color="#4C4CBF"/>
</linearGradient>
<linearGradient id="paint83_linear_11_236" x1="25.817" y1="244.733" x2="42.7992" y2="237.268" gradientUnits="userSpaceOnUse">
<stop stop-color="#58CAEA"/>
<stop offset="1" stop-color="#4C4CBF"/>
</linearGradient>
<linearGradient id="paint84_linear_11_236" x1="25.7203" y1="254.914" x2="46.9344" y2="245.589" gradientUnits="userSpaceOnUse">
<stop stop-color="#58CAEA"/>
<stop offset="1" stop-color="#4C4CBF"/>
</linearGradient>
<linearGradient id="paint85_linear_11_236" x1="47.0152" y1="247.435" x2="48.7928" y2="246.654" gradientUnits="userSpaceOnUse">
<stop stop-color="#58CAEA"/>
<stop offset="1" stop-color="#4C4CBF"/>
</linearGradient>
<linearGradient id="paint86_linear_11_236" x1="48.5076" y1="251.206" x2="50.0512" y2="250.528" gradientUnits="userSpaceOnUse">
<stop stop-color="#58CAEA"/>
<stop offset="1" stop-color="#4C4CBF"/>
</linearGradient>
<linearGradient id="paint87_linear_11_236" x1="33.4118" y1="178.273" x2="37.7229" y2="176.378" gradientUnits="userSpaceOnUse">
<stop stop-color="#58CAEA"/>
<stop offset="1" stop-color="#4C4CBF"/>
</linearGradient>
<linearGradient id="paint88_linear_11_236" x1="35.0984" y1="179.682" x2="41.137" y2="177.028" gradientUnits="userSpaceOnUse">
<stop stop-color="#58CAEA"/>
<stop offset="1" stop-color="#4C4CBF"/>
</linearGradient>
<linearGradient id="paint89_linear_11_236" x1="31.7278" y1="176.939" x2="34.0352" y2="175.924" gradientUnits="userSpaceOnUse">
<stop stop-color="#58CAEA"/>
<stop offset="1" stop-color="#4C4CBF"/>
</linearGradient>
<linearGradient id="paint90_linear_11_236" x1="36.5902" y1="185.471" x2="44.0489" y2="182.192" gradientUnits="userSpaceOnUse">
<stop stop-color="#58CAEA"/>
<stop offset="1" stop-color="#4C4CBF"/>
</linearGradient>
<linearGradient id="paint91_linear_11_236" x1="37.6185" y1="195.192" x2="40.4757" y2="193.936" gradientUnits="userSpaceOnUse">
<stop stop-color="#58CAEA"/>
<stop offset="1" stop-color="#4C4CBF"/>
</linearGradient>
<linearGradient id="paint92_linear_11_236" x1="35.82" y1="186.388" x2="37.7718" y2="185.53" gradientUnits="userSpaceOnUse">
<stop stop-color="#58CAEA"/>
<stop offset="1" stop-color="#4C4CBF"/>
</linearGradient>
<linearGradient id="paint93_linear_11_236" x1="37.7663" y1="191.114" x2="46.0463" y2="187.475" gradientUnits="userSpaceOnUse">
<stop stop-color="#58CAEA"/>
<stop offset="1" stop-color="#4C4CBF"/>
</linearGradient>
<linearGradient id="paint94_linear_11_236" x1="35.82" y1="186.388" x2="37.7718" y2="185.53" gradientUnits="userSpaceOnUse">
<stop stop-color="#58CAEA"/>
<stop offset="1" stop-color="#4C4CBF"/>
</linearGradient>
<linearGradient id="paint95_linear_11_236" x1="39.3096" y1="202.516" x2="42.4817" y2="201.122" gradientUnits="userSpaceOnUse">
<stop stop-color="#58CAEA"/>
<stop offset="1" stop-color="#4C4CBF"/>
</linearGradient>
<linearGradient id="paint96_linear_11_236" x1="39.5757" y1="197.531" x2="50.8332" y2="192.583" gradientUnits="userSpaceOnUse">
<stop stop-color="#58CAEA"/>
<stop offset="1" stop-color="#4C4CBF"/>
</linearGradient>
<linearGradient id="paint97_linear_11_236" x1="41.019" y1="209.844" x2="44.5665" y2="208.284" gradientUnits="userSpaceOnUse">
<stop stop-color="#58CAEA"/>
<stop offset="1" stop-color="#4C4CBF"/>
</linearGradient>
<linearGradient id="paint98_linear_11_236" x1="41.4101" y1="204.82" x2="53.5459" y2="199.486" gradientUnits="userSpaceOnUse">
<stop stop-color="#58CAEA"/>
<stop offset="1" stop-color="#4C4CBF"/>
</linearGradient>
<linearGradient id="paint99_linear_11_236" x1="42.7809" y1="217.777" x2="46.5343" y2="216.127" gradientUnits="userSpaceOnUse">
<stop stop-color="#58CAEA"/>
<stop offset="1" stop-color="#4C4CBF"/>
</linearGradient>
<linearGradient id="paint100_linear_11_236" x1="43.1786" y1="212.283" x2="55.3144" y2="206.949" gradientUnits="userSpaceOnUse">
<stop stop-color="#58CAEA"/>
<stop offset="1" stop-color="#4C4CBF"/>
</linearGradient>
<linearGradient id="paint101_linear_11_236" x1="44.5014" y1="225.325" x2="48.3286" y2="223.643" gradientUnits="userSpaceOnUse">
<stop stop-color="#58CAEA"/>
<stop offset="1" stop-color="#4C4CBF"/>
</linearGradient>
<linearGradient id="paint102_linear_11_236" x1="45.3158" y1="219.088" x2="58.3845" y2="213.343" gradientUnits="userSpaceOnUse">
<stop stop-color="#58CAEA"/>
<stop offset="1" stop-color="#4C4CBF"/>
</linearGradient>
<linearGradient id="paint103_linear_11_236" x1="46.2318" y1="233.496" x2="50.9088" y2="231.441" gradientUnits="userSpaceOnUse">
<stop stop-color="#58CAEA"/>
<stop offset="1" stop-color="#4C4CBF"/>
</linearGradient>
<linearGradient id="paint104_linear_11_236" x1="47.3669" y1="226.459" x2="61.7811" y2="220.124" gradientUnits="userSpaceOnUse">
<stop stop-color="#58CAEA"/>
<stop offset="1" stop-color="#4C4CBF"/>
</linearGradient>
<linearGradient id="paint105_linear_11_236" x1="47.6799" y1="239.765" x2="52.4502" y2="237.668" gradientUnits="userSpaceOnUse">
<stop stop-color="#58CAEA"/>
<stop offset="1" stop-color="#4C4CBF"/>
</linearGradient>
<linearGradient id="paint106_linear_11_236" x1="47.8707" y1="236.005" x2="63.9984" y2="228.916" gradientUnits="userSpaceOnUse">
<stop stop-color="#58CAEA"/>
<stop offset="1" stop-color="#4C4CBF"/>
</linearGradient>
<linearGradient id="paint107_linear_11_236" x1="49.5574" y1="244.955" x2="66.0371" y2="237.711" gradientUnits="userSpaceOnUse">
<stop stop-color="#58CAEA"/>
<stop offset="1" stop-color="#4C4CBF"/>
</linearGradient>
<linearGradient id="paint108_linear_11_236" x1="49.789" y1="246.353" x2="52.0797" y2="245.346" gradientUnits="userSpaceOnUse">
<stop stop-color="#58CAEA"/>
<stop offset="1" stop-color="#4C4CBF"/>
</linearGradient>
<linearGradient id="paint109_linear_11_236" x1="50.7771" y1="250.2" x2="52.2105" y2="249.57" gradientUnits="userSpaceOnUse">
<stop stop-color="#58CAEA"/>
<stop offset="1" stop-color="#4C4CBF"/>
</linearGradient>
<linearGradient id="paint110_linear_11_236" x1="57.8983" y1="220.173" x2="67.8629" y2="226.755" gradientUnits="userSpaceOnUse">
<stop stop-color="#58CAEA"/>
<stop offset="1" stop-color="#4C4CBF"/>
</linearGradient>
<linearGradient id="paint111_linear_11_236" x1="76.0535" y1="191.791" x2="78.061" y2="193.117" gradientUnits="userSpaceOnUse">
<stop stop-color="#58CAEA"/>
<stop offset="1" stop-color="#4C4CBF"/>
</linearGradient>
<linearGradient id="paint112_linear_11_236" x1="76.9399" y1="194.207" x2="81.9999" y2="197.549" gradientUnits="userSpaceOnUse">
<stop stop-color="#58CAEA"/>
<stop offset="1" stop-color="#4C4CBF"/>
</linearGradient>
<linearGradient id="paint113_linear_11_236" x1="73.1997" y1="188.16" x2="77.165" y2="190.779" gradientUnits="userSpaceOnUse">
<stop stop-color="#58CAEA"/>
<stop offset="1" stop-color="#4C4CBF"/>
</linearGradient>
<linearGradient id="paint114_linear_11_236" x1="75.713" y1="199.247" x2="81.4067" y2="203.008" gradientUnits="userSpaceOnUse">
<stop stop-color="#58CAEA"/>
<stop offset="1" stop-color="#4C4CBF"/>
</linearGradient>
<linearGradient id="paint115_linear_11_236" x1="70.3454" y1="205.319" x2="71.7732" y2="206.262" gradientUnits="userSpaceOnUse">
<stop stop-color="#58CAEA"/>
<stop offset="1" stop-color="#4C4CBF"/>
</linearGradient>
<linearGradient id="paint116_linear_11_236" x1="73.1599" y1="198.394" x2="73.9405" y2="198.91" gradientUnits="userSpaceOnUse">
<stop stop-color="#58CAEA"/>
<stop offset="1" stop-color="#4C4CBF"/>
</linearGradient>
<linearGradient id="paint117_linear_11_236" x1="74.282" y1="203.952" x2="79.9572" y2="207.701" gradientUnits="userSpaceOnUse">
<stop stop-color="#58CAEA"/>
<stop offset="1" stop-color="#4C4CBF"/>
</linearGradient>
<linearGradient id="paint118_linear_11_236" x1="73.1599" y1="198.394" x2="73.9405" y2="198.91" gradientUnits="userSpaceOnUse">
<stop stop-color="#58CAEA"/>
<stop offset="1" stop-color="#4C4CBF"/>
</linearGradient>
<linearGradient id="paint119_linear_11_236" x1="68.1521" y1="211.312" x2="69.6743" y2="212.317" gradientUnits="userSpaceOnUse">
<stop stop-color="#58CAEA"/>
<stop offset="1" stop-color="#4C4CBF"/>
</linearGradient>
<linearGradient id="paint120_linear_11_236" x1="72.9401" y1="209.544" x2="82.009" y2="215.535" gradientUnits="userSpaceOnUse">
<stop stop-color="#58CAEA"/>
<stop offset="1" stop-color="#4C4CBF"/>
</linearGradient>
<linearGradient id="paint121_linear_11_236" x1="65.8045" y1="217.182" x2="67.8158" y2="218.51" gradientUnits="userSpaceOnUse">
<stop stop-color="#58CAEA"/>
<stop offset="1" stop-color="#4C4CBF"/>
</linearGradient>
<linearGradient id="paint122_linear_11_236" x1="70.9782" y1="215.657" x2="80.8969" y2="222.209" gradientUnits="userSpaceOnUse">
<stop stop-color="#58CAEA"/>
<stop offset="1" stop-color="#4C4CBF"/>
</linearGradient>
<linearGradient id="paint123_linear_11_236" x1="63.2979" y1="223.514" x2="65.37" y2="224.883" gradientUnits="userSpaceOnUse">
<stop stop-color="#58CAEA"/>
<stop offset="1" stop-color="#4C4CBF"/>
</linearGradient>
<linearGradient id="paint124_linear_11_236" x1="68.652" y1="221.69" x2="78.5707" y2="228.242" gradientUnits="userSpaceOnUse">
<stop stop-color="#58CAEA"/>
<stop offset="1" stop-color="#4C4CBF"/>
</linearGradient>
<linearGradient id="paint125_linear_11_236" x1="60.8386" y1="229.534" x2="62.9994" y2="230.962" gradientUnits="userSpaceOnUse">
<stop stop-color="#58CAEA"/>
<stop offset="1" stop-color="#4C4CBF"/>
</linearGradient>
<linearGradient id="paint126_linear_11_236" x1="67.1763" y1="227.771" x2="78.218" y2="235.064" gradientUnits="userSpaceOnUse">
<stop stop-color="#58CAEA"/>
<stop offset="1" stop-color="#4C4CBF"/>
</linearGradient>
<linearGradient id="paint127_linear_11_236" x1="58.2983" y1="236.057" x2="61.0313" y2="237.862" gradientUnits="userSpaceOnUse">
<stop stop-color="#58CAEA"/>
<stop offset="1" stop-color="#4C4CBF"/>
</linearGradient>
<linearGradient id="paint128_linear_11_236" x1="64.8917" y1="233.779" x2="78.5342" y2="242.791" gradientUnits="userSpaceOnUse">
<stop stop-color="#58CAEA"/>
<stop offset="1" stop-color="#4C4CBF"/>
</linearGradient>
<linearGradient id="paint129_linear_11_236" x1="56.2957" y1="241.084" x2="59.0898" y2="242.93" gradientUnits="userSpaceOnUse">
<stop stop-color="#58CAEA"/>
<stop offset="1" stop-color="#4C4CBF"/>
</linearGradient>
<linearGradient id="paint130_linear_11_236" x1="60.3099" y1="239.802" x2="75.4986" y2="249.835" gradientUnits="userSpaceOnUse">
<stop stop-color="#58CAEA"/>
<stop offset="1" stop-color="#4C4CBF"/>
</linearGradient>
<linearGradient id="paint131_linear_11_236" x1="55.6479" y1="245.793" x2="74.3076" y2="258.118" gradientUnits="userSpaceOnUse">
<stop stop-color="#58CAEA"/>
<stop offset="1" stop-color="#4C4CBF"/>
</linearGradient>
<linearGradient id="paint132_linear_11_236" x1="53.8202" y1="246.402" x2="55.4496" y2="247.479" gradientUnits="userSpaceOnUse">
<stop stop-color="#58CAEA"/>
<stop offset="1" stop-color="#4C4CBF"/>
</linearGradient>
<linearGradient id="paint133_linear_11_236" x1="52.2257" y1="249.323" x2="53.6068" y2="250.235" gradientUnits="userSpaceOnUse">
<stop stop-color="#58CAEA"/>
<stop offset="1" stop-color="#4C4CBF"/>
</linearGradient>
<linearGradient id="paint134_linear_11_236" x1="72.066" y1="191.627" x2="75.5313" y2="193.916" gradientUnits="userSpaceOnUse">
<stop stop-color="#58CAEA"/>
<stop offset="1" stop-color="#4C4CBF"/>
</linearGradient>
<linearGradient id="paint135_linear_11_236" x1="68.7977" y1="191.428" x2="73.8393" y2="194.759" gradientUnits="userSpaceOnUse">
<stop stop-color="#58CAEA"/>
<stop offset="1" stop-color="#4C4CBF"/>
</linearGradient>
<linearGradient id="paint136_linear_11_236" x1="75.4953" y1="191.981" x2="77.3471" y2="193.204" gradientUnits="userSpaceOnUse">
<stop stop-color="#58CAEA"/>
<stop offset="1" stop-color="#4C4CBF"/>
</linearGradient>
<linearGradient id="paint137_linear_11_236" x1="65.5987" y1="195.052" x2="71.7837" y2="199.137" gradientUnits="userSpaceOnUse">
<stop stop-color="#58CAEA"/>
<stop offset="1" stop-color="#4C4CBF"/>
</linearGradient>
<linearGradient id="paint138_linear_11_236" x1="67.5159" y1="205.293" x2="69.8184" y2="206.814" gradientUnits="userSpaceOnUse">
<stop stop-color="#58CAEA"/>
<stop offset="1" stop-color="#4C4CBF"/>
</linearGradient>
<linearGradient id="paint139_linear_11_236" x1="70.9239" y1="199.013" x2="72.4846" y2="200.044" gradientUnits="userSpaceOnUse">
<stop stop-color="#58CAEA"/>
<stop offset="1" stop-color="#4C4CBF"/>
</linearGradient>
<linearGradient id="paint140_linear_11_236" x1="63.1902" y1="198.968" x2="70.0073" y2="203.471" gradientUnits="userSpaceOnUse">
<stop stop-color="#58CAEA"/>
<stop offset="1" stop-color="#4C4CBF"/>
</linearGradient>
<linearGradient id="paint141_linear_11_236" x1="70.9239" y1="199.013" x2="72.4846" y2="200.044" gradientUnits="userSpaceOnUse">
<stop stop-color="#58CAEA"/>
<stop offset="1" stop-color="#4C4CBF"/>
</linearGradient>
<linearGradient id="paint142_linear_11_236" x1="64.8622" y1="210.746" x2="67.4175" y2="212.434" gradientUnits="userSpaceOnUse">
<stop stop-color="#58CAEA"/>
<stop offset="1" stop-color="#4C4CBF"/>
</linearGradient>
<linearGradient id="paint143_linear_11_236" x1="58.2382" y1="202.148" x2="67.6065" y2="208.336" gradientUnits="userSpaceOnUse">
<stop stop-color="#58CAEA"/>
<stop offset="1" stop-color="#4C4CBF"/>
</linearGradient>
<linearGradient id="paint144_linear_11_236" x1="62.1354" y1="216.144" x2="65.0153" y2="218.046" gradientUnits="userSpaceOnUse">
<stop stop-color="#58CAEA"/>
<stop offset="1" stop-color="#4C4CBF"/>
</linearGradient>
<linearGradient id="paint145_linear_11_236" x1="54.9789" y1="207.189" x2="65.0933" y2="213.87" gradientUnits="userSpaceOnUse">
<stop stop-color="#58CAEA"/>
<stop offset="1" stop-color="#4C4CBF"/>
</linearGradient>
<linearGradient id="paint146_linear_11_236" x1="59.4567" y1="222.114" x2="62.502" y2="224.126" gradientUnits="userSpaceOnUse">
<stop stop-color="#58CAEA"/>
<stop offset="1" stop-color="#4C4CBF"/>
</linearGradient>
<linearGradient id="paint147_linear_11_236" x1="52.4992" y1="212.9" x2="62.6136" y2="219.581" gradientUnits="userSpaceOnUse">
<stop stop-color="#58CAEA"/>
<stop offset="1" stop-color="#4C4CBF"/>
</linearGradient>
<linearGradient id="paint148_linear_11_236" x1="56.9509" y1="227.869" x2="60.0549" y2="229.92" gradientUnits="userSpaceOnUse">
<stop stop-color="#58CAEA"/>
<stop offset="1" stop-color="#4C4CBF"/>
</linearGradient>
<linearGradient id="paint149_linear_11_236" x1="48.9672" y1="217.482" x2="59.881" y2="224.691" gradientUnits="userSpaceOnUse">
<stop stop-color="#58CAEA"/>
<stop offset="1" stop-color="#4C4CBF"/>
</linearGradient>
<linearGradient id="paint150_linear_11_236" x1="53.711" y1="233.7" x2="57.5112" y2="236.21" gradientUnits="userSpaceOnUse">
<stop stop-color="#58CAEA"/>
<stop offset="1" stop-color="#4C4CBF"/>
</linearGradient>
<linearGradient id="paint151_linear_11_236" x1="45.0345" y1="222.249" x2="57.1805" y2="230.272" gradientUnits="userSpaceOnUse">
<stop stop-color="#58CAEA"/>
<stop offset="1" stop-color="#4C4CBF"/>
</linearGradient>
<linearGradient id="paint152_linear_11_236" x1="51.6031" y1="238.444" x2="55.4736" y2="241.001" gradientUnits="userSpaceOnUse">
<stop stop-color="#58CAEA"/>
<stop offset="1" stop-color="#4C4CBF"/>
</linearGradient>
<linearGradient id="paint153_linear_11_236" x1="42.0276" y1="228.974" x2="55.626" y2="237.956" gradientUnits="userSpaceOnUse">
<stop stop-color="#58CAEA"/>
<stop offset="1" stop-color="#4C4CBF"/>
</linearGradient>
<linearGradient id="paint154_linear_11_236" x1="39.0542" y1="235.594" x2="53.1404" y2="244.899" gradientUnits="userSpaceOnUse">
<stop stop-color="#58CAEA"/>
<stop offset="1" stop-color="#4C4CBF"/>
</linearGradient>
<linearGradient id="paint155_linear_11_236" x1="51.0069" y1="244.716" x2="52.8829" y2="245.955" gradientUnits="userSpaceOnUse">
<stop stop-color="#58CAEA"/>
<stop offset="1" stop-color="#4C4CBF"/>
</linearGradient>
<linearGradient id="paint156_linear_11_236" x1="50.3675" y1="248.129" x2="51.5769" y2="248.928" gradientUnits="userSpaceOnUse">
<stop stop-color="#58CAEA"/>
<stop offset="1" stop-color="#4C4CBF"/>
</linearGradient>
</defs>
</svg>
