<svg width="79" height="53" viewBox="0 0 79 53" fill="none" xmlns="http://www.w3.org/2000/svg">
<path d="M68.9324 0H31.6404C31.2893 0 31.1137 0 30.9465 0.028562C30.6505 0.0791353 30.3697 0.195727 30.1249 0.369683C29.9866 0.467927 29.8627 0.592256 29.6148 0.840912L4.8635 25.6716C3.64505 26.8939 3.03582 27.5051 2.89407 28.0026C2.63927 28.8969 3.03447 29.8489 3.84774 30.2998C4.30019 30.5506 5.16315 30.5506 6.88906 30.5506H33.633C34.3532 30.5506 34.7133 30.5506 35.0056 30.6423C35.6302 30.8383 36.1194 31.3274 36.3153 31.952C36.407 32.2443 36.407 32.6044 36.407 33.3247C36.407 34.8987 36.407 35.6857 36.613 36.1037C37.0601 37.0111 38.1144 37.4418 39.069 37.1069C39.5088 36.9527 40.0598 36.3907 41.1618 35.2669L70.9745 4.86235C72.1708 3.64226 72.769 3.03221 72.907 2.53559C73.1551 1.64302 72.7578 0.696907 71.9468 0.249137C71.4955 0 70.6411 0 68.9324 0Z" fill="#00BAFF"/>
<path d="M9.34766 53H46.6397C46.9908 53 47.1663 53 47.3335 52.9714C47.6295 52.9209 47.9104 52.8043 48.1552 52.6303C48.2934 52.5321 48.4174 52.4077 48.6652 52.1591L73.4165 27.3284C74.635 26.1061 75.2442 25.4949 75.386 24.9974C75.6408 24.1031 75.2456 23.1511 74.4323 22.7002C73.9798 22.4494 73.1169 22.4494 71.391 22.4494H41.9727C40.685 22.4494 39.7424 21.2361 40.0607 19.9884C40.5591 18.0345 38.1516 16.6793 36.7398 18.1191L7.30556 48.1376C6.10921 49.3577 5.51104 49.9678 5.37301 50.4644C5.12492 51.357 5.52228 52.3031 6.33327 52.7509C6.78452 53 7.6389 53 9.34766 53Z" fill="#4D17E2"/>
<path d="M41.6949 12.884L24.5967 30.446H36.3885L36.2903 40.2137L53.6832 22.4543H41.6949V12.884Z" fill="white"/>
</svg>
