<svg width="478" height="337" viewBox="0 0 478 337" fill="none" xmlns="http://www.w3.org/2000/svg">
<path d="M35.6955 117.318C35.5 116.732 35.3046 116.146 35.2068 115.559C33.4962 105.052 25.4321 45.917 70.1025 26.0263C92.0955 16.2519 117.021 0.124293 197.662 29.936C292.819 65.1236 355.035 5.50017 369.697 5.50017C384.359 5.50017 417.593 -16.0033 456.692 26.0263C495.791 68.0559 466.466 118.882 466.466 118.882C466.466 118.882 447.895 166.777 453.759 191.212C459.624 215.648 466.466 235.197 464.512 243.016C462.557 250.836 461.579 303.617 429.323 315.346C397.066 327.076 407.818 325.121 332.553 321.211C257.288 317.301 218.189 328.053 202.55 333.918C186.91 339.782 163.451 337.827 121.42 309.482C79.3884 281.136 69.6137 289.933 48.1094 277.226C26.6051 264.52 -28.0355 194.242 17.8078 143.318C35.5489 123.672 36.1354 118.54 35.6955 117.318Z" fill="#F8F8FF"/>
<path d="M95.6144 94.1533C103.739 94.1533 110.325 87.5672 110.325 79.4429C110.325 71.3186 103.739 64.7325 95.6144 64.7325C87.4898 64.7325 80.9035 71.3186 80.9035 79.4429C80.9035 87.5672 87.4898 94.1533 95.6144 94.1533Z" fill="white"/>
<path d="M111.547 89.4127C117.081 89.4127 121.566 84.9272 121.566 79.394C121.566 73.8609 117.081 69.3754 111.547 69.3754C106.014 69.3754 101.528 73.8609 101.528 79.394C101.528 84.9272 106.014 89.4127 111.547 89.4127Z" fill="white"/>
<path d="M78.8508 87.2624C83.3045 87.2624 86.9149 83.6521 86.9149 79.1986C86.9149 74.7451 83.3045 71.1348 78.8508 71.1348C74.3971 71.1348 70.7867 74.7451 70.7867 79.1986C70.7867 83.6521 74.3971 87.2624 78.8508 87.2624Z" fill="white"/>
<path d="M383.968 70.8416C392.093 70.8416 398.679 64.2556 398.679 56.1313C398.679 48.007 392.093 41.4209 383.968 41.4209C375.843 41.4209 369.257 48.007 369.257 56.1313C369.257 64.2556 375.843 70.8416 383.968 70.8416Z" fill="white"/>
<path d="M399.95 66.101C405.483 66.101 409.969 61.6154 409.969 56.0823C409.969 50.5491 405.483 46.0636 399.95 46.0636C394.416 46.0636 389.931 50.5491 389.931 56.0823C389.931 61.6154 394.416 66.101 399.95 66.101Z" fill="white"/>
<path d="M367.204 63.9506C371.658 63.9506 375.269 60.3403 375.269 55.8868C375.269 51.4333 371.658 47.823 367.204 47.823C362.751 47.823 359.14 51.4333 359.14 55.8868C359.14 60.3403 362.751 63.9506 367.204 63.9506Z" fill="white"/>
<path d="M224.445 122.108C232.57 122.108 239.156 115.522 239.156 107.397C239.156 99.2732 232.57 92.6871 224.445 92.6871C216.32 92.6871 209.734 99.2732 209.734 107.397C209.734 115.522 216.32 122.108 224.445 122.108Z" fill="white"/>
<path d="M249.628 111.152C251.746 106.04 249.318 100.179 244.206 98.0615C239.094 95.944 233.233 98.3715 231.115 103.484C228.998 108.596 231.425 114.456 236.538 116.574C241.65 118.692 247.511 116.264 249.628 111.152Z" fill="white"/>
<path d="M207.681 115.168C212.135 115.168 215.745 111.558 215.745 107.104C215.745 102.651 212.135 99.0405 207.681 99.0405C203.228 99.0405 199.617 102.651 199.617 107.104C199.617 111.558 203.228 115.168 207.681 115.168Z" fill="white"/>
<path d="M11.4543 237.152C11.4543 237.152 20.7402 223.468 21.7177 221.513C22.6952 219.558 22.2065 211.738 22.2065 211.738H18.7853C18.7853 211.738 21.7177 203.43 30.0262 203.43C38.3347 203.43 40.7784 207.34 41.7558 209.295C42.7333 211.25 42.2446 212.227 42.2446 212.227H39.3122V220.047L53.4855 243.505H59.3503V281.625C59.3503 281.625 24.6501 263.542 11.4543 237.152Z" fill="#BAC6F2"/>
<path d="M44.1995 271.851H51.0418V262.076C51.0418 262.076 47.6207 256.7 44.1995 262.076V271.851Z" fill="white"/>
<path d="M46.3499 252.009C48.7252 252.009 50.6508 250.083 50.6508 247.708C50.6508 245.333 48.7252 243.407 46.3499 243.407C43.9746 243.407 42.0491 245.333 42.0491 247.708C42.0491 250.083 43.9746 252.009 46.3499 252.009Z" fill="#E9EDFA"/>
<path d="M14.2889 242.479C16.2439 241.11 18.9319 241.55 20.3004 243.505C21.6688 245.411 21.229 248.05 19.3718 249.467" fill="#E9EDFA"/>
<path d="M30.9059 232.411C33.2812 232.411 35.2068 230.486 35.2068 228.111C35.2068 225.735 33.2812 223.81 30.9059 223.81C28.5306 223.81 26.605 225.735 26.605 228.111C26.605 230.486 28.5306 232.411 30.9059 232.411Z" fill="#E9EDFA"/>
<path d="M23.7215 244.238C23.7215 243.114 24.1614 242.039 24.8456 241.208C26.2141 239.497 28.2668 238.471 30.4661 238.373C35.0113 238.276 37.0151 242.088 37.3084 243.652C37.7482 245.997 37.6505 257.922 37.6505 257.922L26.9961 257.873L23.6727 254.354L23.7215 244.238Z" fill="white"/>
<path d="M58.2262 228.453L59.3503 281.674C59.3503 281.674 79.4862 289.2 87.9902 290.959C96.4941 292.719 116.239 304.008 116.239 304.008L115.897 228.648L58.2262 228.257" fill="#E9EDFA"/>
<path d="M57.8352 228.453L115.946 228.697L115.701 214.817H98.4979C98.4979 214.817 96.3475 206.509 88.3322 206.509C78.5087 206.509 76.847 215.257 76.847 215.257L57.7863 215.062L57.8352 228.453Z" fill="#BAC6F2"/>
<path d="M74.2567 236.321H63.9932V247.464H74.2567V236.321Z" fill="#BAC6F2"/>
<path d="M92.8286 236.174H82.5652V247.317H92.8286V236.174Z" fill="#BAC6F2"/>
<path d="M111.156 236.321H100.893V247.464H111.156V236.321Z" fill="white"/>
<path d="M111.303 257.287H101.039V268.429H111.303V257.287Z" fill="#BAC6F2"/>
<path d="M111.449 281.674H101.186V292.816H111.449V281.674Z" fill="#BAC6F2"/>
<path d="M92.3887 256.994H82.1253V268.136H92.3887V256.994Z" fill="#BAC6F2"/>
<path d="M92.3887 256.994H82.1253V268.136H92.3887V256.994Z" fill="white"/>
<path d="M74.3055 257.482H64.0421V268.625H74.3055V257.482Z" fill="#BAC6F2"/>
<path d="M64.2865 283.335L64.1887 280.061L74.1589 280.257L74.2078 286.805C74.2078 286.854 66.8279 284.411 64.2865 283.335Z" fill="#BAC6F2"/>
<path d="M82.7118 289.493L82.5652 281.185L92.682 281.381L92.4376 292.23L82.7118 289.493Z" fill="#BAC6F2"/>
<path d="M87.7946 222.881C90.9257 222.881 93.464 220.343 93.464 217.212C93.464 214.081 90.9257 211.543 87.7946 211.543C84.6636 211.543 82.1253 214.081 82.1253 217.212C82.1253 220.343 84.6636 222.881 87.7946 222.881Z" fill="white"/>
<path d="M115.75 265.791L116.239 304.057C116.239 304.057 146.687 324.29 148.593 325.756C150.499 327.222 166.432 334.944 173.665 335.384L174.985 258.215L170.684 258.069L149.766 232.118L142.044 231.727L115.75 265.791Z" fill="#BAC6F2"/>
<path d="M115.75 265.791L142.093 232.704L144.977 232.802L148.3 232.998L150.157 233.193L170.733 258.069L174.985 258.215V256.749L170.88 256.554L151.184 232.46L151.281 223.175L141.751 222.686L141.409 232.216L116.092 244.385L115.75 265.791Z" fill="#E9EDFA"/>
<path d="M137.255 258.606H132.465V264.227H137.255V258.606Z" fill="white"/>
<path d="M158.368 258.655H153.578V264.276H158.368V258.655Z" fill="white"/>
<path d="M150.597 258.655H145.807V264.276H150.597V258.655Z" fill="white"/>
<path d="M144.244 258.606H139.454V264.227H144.244V258.606Z" fill="white"/>
<path d="M137.255 267.159H132.465V272.779H137.255V267.159Z" fill="white"/>
<path d="M158.368 267.208H153.578V272.828H158.368V267.208Z" fill="white"/>
<path d="M150.597 267.208H145.807V272.828H150.597V267.208Z" fill="white"/>
<path d="M144.244 267.159H139.454V272.779H144.244V267.159Z" fill="white"/>
<path d="M125.916 292.474H121.126V298.095H125.916V292.474Z" fill="white"/>
<path d="M132.123 286.023H127.333V291.644H132.123V286.023Z" fill="white"/>
<path d="M125.769 285.974H120.98V291.595H125.769V285.974Z" fill="white"/>
<path d="M132.172 292.523H127.382V298.144H132.172V292.523Z" fill="white"/>
<path d="M144.683 292.621H139.894V298.241H144.683V292.621Z" fill="white"/>
<path d="M150.89 286.17H146.101V291.79H150.89V286.17Z" fill="white"/>
<path d="M144.537 286.121H139.747V291.741H144.537V286.121Z" fill="white"/>
<path d="M150.939 292.67H146.15V298.29H150.939V292.67Z" fill="white"/>
<path d="M162.815 292.768H158.026V298.388H162.815V292.768Z" fill="white"/>
<path d="M169.022 286.317H164.233V291.937H169.022V286.317Z" fill="white"/>
<path d="M162.669 286.317H157.879V291.937H162.669V286.317Z" fill="white"/>
<path d="M169.12 292.865H164.331V298.486H169.12V292.865Z" fill="white"/>
<path d="M162.571 320.136H157.781V328.102H162.571V320.136Z" fill="white"/>
<path d="M168.778 313.685H163.988V319.305H168.778V313.685Z" fill="white"/>
<path d="M162.424 313.636H157.635V319.256H162.424V313.636Z" fill="white"/>
<path d="M149.962 313.538H145.172V319.158H149.962V313.538Z" fill="white"/>
<path d="M150.011 326.587L145.221 323.459L145.172 320.38H149.962L150.011 326.587Z" fill="white"/>
<path d="M143.608 313.489H138.819V319.109H143.608V313.489Z" fill="white"/>
<path d="M143.559 322.286L142.337 321.455L140.334 320.136H143.559V322.286Z" fill="white"/>
<path d="M168.876 320.185H164.086V328.151H168.876V320.185Z" fill="white"/>
<path d="M199.813 207.242H208.805L208.659 202.844L199.666 202.746L199.813 207.242Z" fill="#BAC6F2"/>
<path d="M174.594 248.539L173.714 335.384C173.714 335.384 189.207 337.778 203.185 334.26C217.163 330.741 233.291 326.929 233.291 326.929L233.829 249.37L224.445 244.776L209.196 217.75L208.805 207.193H199.764L199.471 217.75L183.44 244.238L174.594 248.539Z" fill="#E9EDFA"/>
<path d="M203.723 255.967H197.809V263.347H203.723V255.967Z" fill="#BAC6F2"/>
<path d="M212.129 256.114H205.824V263.347H212.129V256.114Z" fill="#BAC6F2"/>
<path d="M203.576 264.715H197.662V272.095H203.576V264.715Z" fill="#BAC6F2"/>
<path d="M211.982 264.862H205.678V272.095H211.982V264.862Z" fill="#BAC6F2"/>
<path d="M203.82 282.309H197.907V289.689H203.82V282.309Z" fill="#BAC6F2"/>
<path d="M189.891 282.26H183.978V289.64H189.891V282.26Z" fill="#BAC6F2"/>
<path d="M224.885 282.553H218.971V289.933H224.885V282.553Z" fill="#BAC6F2"/>
<path d="M225.08 315.053H219.167V322.433H225.08V315.053Z" fill="#BAC6F2"/>
<path d="M189.94 315.249H184.027V322.628H189.94V315.249Z" fill="#BAC6F2"/>
<path d="M212.275 282.407H205.971V289.64H212.275V282.407Z" fill="#BAC6F2"/>
<path d="M203.674 291.057H197.76V298.437H203.674V291.057Z" fill="#BAC6F2"/>
<path d="M212.129 291.155H205.824V298.388H212.129V291.155Z" fill="#BAC6F2"/>
<path d="M203.723 314.222H197.809V321.602H203.723V314.222Z" fill="#BAC6F2"/>
<path d="M212.129 314.369H205.824V321.602H212.129V314.369Z" fill="#BAC6F2"/>
<path d="M203.576 322.97H197.662V330.35H203.576V322.97Z" fill="#BAC6F2"/>
<path d="M212.031 323.117H205.726V330.35H212.031V323.117Z" fill="#BAC6F2"/>
<path d="M187.252 268.332C189.547 268.332 191.407 266.472 191.407 264.178C191.407 261.884 189.547 260.024 187.252 260.024C184.958 260.024 183.098 261.884 183.098 264.178C183.098 266.472 184.958 268.332 187.252 268.332Z" fill="#BAC6F2"/>
<path d="M220.828 269.26C223.123 269.26 224.983 267.401 224.983 265.106C224.983 262.812 223.123 260.952 220.828 260.952C218.534 260.952 216.674 262.812 216.674 265.106C216.674 267.401 218.534 269.26 220.828 269.26Z" fill="#BAC6F2"/>
<path d="M174.594 248.539H183.636L183.489 244.14L174.447 244.043L174.594 248.539Z" fill="#BAC6F2"/>
<path d="M224.787 249.37H233.829L233.682 244.971L224.64 244.873L224.787 249.37Z" fill="#BAC6F2"/>
<path d="M204.651 246.437C208.592 246.437 211.787 243.243 211.787 239.302C211.787 235.361 208.592 232.167 204.651 232.167C200.71 232.167 197.516 235.361 197.516 239.302C197.516 243.243 200.71 246.437 204.651 246.437Z" fill="#BAC6F2"/>
<path d="M230.114 249.712L230.652 287.196C230.652 287.196 232.02 327.369 232.167 327.222C235.393 323.899 284.999 320.527 290.717 320.38L289.398 242.185L285.097 242.039L264.13 216.039L256.408 215.648L230.114 249.712Z" fill="#BAC6F2"/>
<path d="M230.114 249.712L256.408 216.674L259.341 216.772L262.664 216.968L264.472 217.163L285.048 241.99L289.349 242.185V240.67L285.244 240.524L265.499 216.43L265.645 207.096L256.115 206.607L255.724 216.137L230.114 244.922V249.712Z" fill="#E9EDFA"/>
<path d="M251.619 242.576H246.829V248.197H251.619V242.576Z" fill="white"/>
<path d="M272.732 242.625H267.942V248.246H272.732V242.625Z" fill="white"/>
<path d="M264.961 242.576H260.171V248.197H264.961V242.576Z" fill="white"/>
<path d="M258.607 242.528H253.818V248.148H258.607V242.528Z" fill="white"/>
<path d="M251.619 251.129H246.829V256.749H251.619V251.129Z" fill="white"/>
<path d="M272.732 251.178H267.942V256.798H272.732V251.178Z" fill="white"/>
<path d="M264.961 251.129H260.171V256.749H264.961V251.129Z" fill="white"/>
<path d="M258.607 251.129H253.818V256.749H258.607V251.129Z" fill="white"/>
<path d="M240.378 280.452H235.588V286.072H240.378V280.452Z" fill="white"/>
<path d="M246.585 274.001H241.795V279.621H246.585V274.001Z" fill="white"/>
<path d="M240.231 273.952H235.441V279.572H240.231V273.952Z" fill="white"/>
<path d="M246.634 280.501H241.844V286.121H246.634V280.501Z" fill="white"/>
<path d="M259.096 280.55H254.307V286.17H259.096V280.55Z" fill="white"/>
<path d="M265.352 274.148H260.562V279.768H265.352V274.148Z" fill="white"/>
<path d="M258.95 274.099H254.16V279.719H258.95V274.099Z" fill="white"/>
<path d="M265.401 280.647H260.611V286.268H265.401V280.647Z" fill="white"/>
<path d="M277.277 280.745H272.488V286.365H277.277V280.745Z" fill="white"/>
<path d="M283.484 274.294H278.695V279.914H283.484V274.294Z" fill="white"/>
<path d="M277.131 274.294H272.341V279.914H277.131V274.294Z" fill="white"/>
<path d="M283.533 280.794H278.743V286.414H283.533V280.794Z" fill="white"/>
<path d="M240.475 304.985H235.686V310.606H240.475V304.985Z" fill="white"/>
<path d="M246.682 298.535H241.893V304.155H246.682V298.535Z" fill="white"/>
<path d="M240.329 298.535H235.539V304.155H240.329V298.535Z" fill="white"/>
<path d="M246.78 305.034H241.991V310.655H246.78V305.034Z" fill="white"/>
<path d="M259.243 305.132H254.453V310.752H259.243V305.132Z" fill="white"/>
<path d="M265.45 298.681H260.66V304.301H265.45V298.681Z" fill="white"/>
<path d="M259.096 298.632H254.307V304.253H259.096V298.632Z" fill="white"/>
<path d="M265.548 305.181H260.758V310.801H265.548V305.181Z" fill="white"/>
<path d="M277.424 305.328H272.634V310.948H277.424V305.328Z" fill="white"/>
<path d="M283.631 298.877H278.841V304.497H283.631V298.877Z" fill="white"/>
<path d="M277.277 298.828H272.488V304.448H277.277V298.828Z" fill="white"/>
<path d="M283.68 305.376H278.89V310.997H283.68V305.376Z" fill="white"/>
<path d="M294.921 231.874C294.921 231.874 307.579 211.738 308.556 209.784C309.534 207.829 309.045 200.009 309.045 200.009H305.624C305.624 200.009 308.556 191.701 316.865 191.701C325.173 191.701 327.617 195.611 328.594 197.566C329.572 199.521 329.083 200.498 329.083 200.498H326.151V208.317L340.324 231.776H346.189L348.095 322.139C348.095 322.139 292.33 319.549 291.157 320.331C290.766 320.576 290.815 318.034 290.766 317.594C290.522 315.688 288.42 246.584 289.496 231.971C289.496 231.971 294.969 231.874 294.921 231.874Z" fill="#E9EDFA"/>
<path d="M330.794 260.366H337.636V250.591C337.636 250.591 334.215 245.215 330.794 250.591V260.366Z" fill="white"/>
<path d="M297.951 261.148H304.793V251.373C304.793 251.373 301.372 245.997 297.951 251.373V261.148Z" fill="white"/>
<path d="M297.951 286.414H304.793V276.64C304.793 276.64 301.372 271.264 297.951 276.64V286.414Z" fill="white"/>
<path d="M314.274 286.708H321.117V276.933C321.117 276.933 317.696 271.557 314.274 276.933V286.708Z" fill="white"/>
<path d="M330.598 287.001H337.44V277.226C337.44 277.226 334.019 271.851 330.598 277.226V287.001Z" fill="white"/>
<path d="M298.342 310.557H305.184V300.783C305.184 300.783 301.763 295.407 298.342 300.783V310.557Z" fill="white"/>
<path d="M314.714 310.85H321.557V301.076C321.557 301.076 318.135 295.7 314.714 301.076V310.85Z" fill="white"/>
<path d="M331.038 311.143H337.88V301.369C337.88 301.369 334.459 295.993 331.038 301.369V311.143Z" fill="white"/>
<path d="M332.944 240.475C335.319 240.475 337.245 238.549 337.245 236.174C337.245 233.799 335.319 231.874 332.944 231.874C330.569 231.874 328.643 233.799 328.643 236.174C328.643 238.549 330.569 240.475 332.944 240.475Z" fill="#E9EDFA"/>
<path d="M302.056 239.84C304.431 239.84 306.357 237.914 306.357 235.539C306.357 233.164 304.431 231.238 302.056 231.238C299.681 231.238 297.755 233.164 297.755 235.539C297.755 237.914 299.681 239.84 302.056 239.84Z" fill="#E9EDFA"/>
<path d="M317.842 261.148C320.218 261.148 322.143 259.222 322.143 256.847C322.143 254.472 320.218 252.546 317.842 252.546C315.467 252.546 313.541 254.472 313.541 256.847C313.541 259.222 315.467 261.148 317.842 261.148Z" fill="#E9EDFA"/>
<path d="M317.5 220.926C319.875 220.926 321.801 219.001 321.801 216.626C321.801 214.25 319.875 212.325 317.5 212.325C315.125 212.325 313.199 214.25 313.199 216.626C313.199 219.001 315.125 220.926 317.5 220.926Z" fill="#E9EDFA"/>
<path d="M310.316 232.704C310.316 231.58 310.756 230.505 311.44 229.674C312.808 227.964 314.861 226.937 317.011 226.84C321.557 226.742 323.56 230.554 323.805 232.118C324.245 234.464 324.147 246.388 324.147 246.388H310.12L310.218 242.87L310.316 232.704Z" fill="white"/>
<path d="M346.433 248.881L347.899 322.286C347.899 322.286 363.979 322.433 373.851 323.654C382.453 324.73 403.175 323.752 403.175 323.752L404.153 249.125L346.482 248.734" fill="#BAC6F2"/>
<path d="M346.042 248.881L404.153 249.125L403.908 235.246H386.705C386.705 235.246 384.554 226.938 376.539 226.938C366.716 226.938 365.054 235.686 365.054 235.686L345.993 235.49L346.042 248.881Z" fill="#BAC6F2"/>
<path d="M362.415 256.749H352.151V267.892H362.415V256.749Z" fill="white"/>
<path d="M380.987 256.603H370.723V267.745H380.987V256.603Z" fill="white"/>
<path d="M399.314 256.749H389.051V267.892H399.314V256.749Z" fill="white"/>
<path d="M399.461 277.715H389.197V288.858H399.461V277.715Z" fill="white"/>
<path d="M399.607 302.102H389.344V313.245H399.607V302.102Z" fill="white"/>
<path d="M380.987 301.662H370.723V312.805H380.987V301.662Z" fill="white"/>
<path d="M362.415 301.418H352.151V312.561H362.415V301.418Z" fill="white"/>
<path d="M380.596 277.373H370.332V288.516H380.596V277.373Z" fill="white"/>
<path d="M380.596 277.373H370.332V288.516H380.596V277.373Z" fill="white"/>
<path d="M362.513 277.862H352.249V289.004H362.513V277.862Z" fill="white"/>
<path d="M375.953 243.309C379.084 243.309 381.622 240.771 381.622 237.64C381.622 234.509 379.084 231.971 375.953 231.971C372.822 231.971 370.283 234.509 370.283 237.64C370.283 240.771 372.822 243.309 375.953 243.309Z" fill="white"/>
<path d="M429.078 185.983H438.071L437.973 181.585L428.932 181.438L429.078 185.983Z" fill="white"/>
<path d="M403.859 227.28L402.784 323.85C402.784 323.85 422.089 318.963 434.357 312.903C445.94 307.136 451.462 294.478 452.782 292.035C452.929 291.79 453.026 291.497 453.124 291.204L459.82 271.264C460.015 270.727 460.162 270.14 460.211 269.602L463.29 249.956L464.756 240.964C464.854 240.426 464.854 239.84 464.756 239.302L463.143 228.599C463.094 228.355 462.948 228.159 462.752 228.013L453.71 223.565L438.462 196.49L438.071 185.934H429.029L428.736 196.49L412.706 222.979L403.859 227.28Z" fill="#E9EDFA"/>
<path d="M432.988 234.708H427.074V242.088H432.988V234.708Z" fill="white"/>
<path d="M441.394 234.855H435.09V242.088H441.394V234.855Z" fill="white"/>
<path d="M432.841 243.456H426.928V250.836H432.841V243.456Z" fill="white"/>
<path d="M441.248 243.603H434.943V250.836H441.248V243.603Z" fill="white"/>
<path d="M433.086 261.001H427.172V268.381H433.086V261.001Z" fill="white"/>
<path d="M419.157 261.001H413.243V268.381H419.157V261.001Z" fill="white"/>
<path d="M454.199 261.294H448.286V268.674H454.199V261.294Z" fill="white"/>
<path d="M450.192 297.117L448.383 299.707L448.628 293.207L452.195 293.061L450.192 297.117Z" fill="white"/>
<path d="M419.206 293.989H413.292V301.369H419.206V293.989Z" fill="white"/>
<path d="M441.541 261.148H435.236V268.381H441.541V261.148Z" fill="white"/>
<path d="M432.988 269.798H427.074V277.178H432.988V269.798Z" fill="white"/>
<path d="M441.394 269.896H435.09V277.129H441.394V269.896Z" fill="white"/>
<path d="M432.988 292.963H427.074V300.343H432.988V292.963Z" fill="white"/>
<path d="M441.394 293.11H435.09V300.343H441.394V293.11Z" fill="white"/>
<path d="M432.89 301.711H426.977V309.091H432.89V301.711Z" fill="white"/>
<path d="M440.808 308.553L440.124 309.091H434.992V301.858H441.297V308.113L440.808 308.553Z" fill="white"/>
<path d="M416.518 247.073C418.812 247.073 420.672 245.213 420.672 242.918C420.672 240.624 418.812 238.764 416.518 238.764C414.223 238.764 412.364 240.624 412.364 242.918C412.364 245.213 414.223 247.073 416.518 247.073Z" fill="white"/>
<path d="M450.094 248.001C452.388 248.001 454.248 246.141 454.248 243.847C454.248 241.553 452.388 239.693 450.094 239.693C447.8 239.693 445.94 241.553 445.94 243.847C445.94 246.141 447.8 248.001 450.094 248.001Z" fill="white"/>
<path d="M403.86 227.28H412.901L412.754 222.881L403.713 222.783L403.86 227.28Z" fill="white"/>
<path d="M454.101 228.11H463.094L462.508 225.325L462.117 223.663L453.955 223.614L454.101 228.11Z" fill="white"/>
<path d="M433.917 225.178C437.858 225.178 441.052 221.984 441.052 218.043C441.052 214.102 437.858 210.908 433.917 210.908C429.976 210.908 426.781 214.102 426.781 218.043C426.781 221.984 429.976 225.178 433.917 225.178Z" fill="white"/>
<path d="M240.084 323.752C241.404 322.872 243.017 321.748 246.878 320.966C250.055 320.38 251.961 315.248 251.961 315.248H259.39C259.39 315.248 260.074 323.752 259.732 324.436C259.39 325.12 259.194 325.854 257.483 326.391C255.773 326.929 240.72 326.733 240.036 326.587C239.449 326.44 237.592 325.414 240.084 323.752Z" fill="#4B49BB"/>
<path d="M326.591 241.99C327.568 243.505 331.967 258.264 332.016 258.997C332.064 259.73 331.673 261.832 329.376 259.877C328.155 258.802 326.591 257.629 324.733 254.012C323.218 251.08 317.891 250.738 317.891 250.738L315.594 243.505C315.594 243.505 323.316 240.279 324.098 240.377C324.88 240.475 325.564 240.475 326.591 241.99Z" fill="#4B49BB"/>
<path d="M277.619 215.208C277.815 215.257 278.059 216.674 278.108 216.87C279.183 220.486 289.544 252.742 289.544 254.11C289.544 255.479 311.733 245.215 315.301 243.603C315.594 243.456 315.887 243.603 316.034 243.847C316.767 245.411 318.82 250.054 318.087 250.591C317.158 251.227 293.845 268.283 291.939 268.772C290.033 269.26 287.15 271.704 282.409 265.839C278.304 260.806 266.867 241.746 263.69 236.419C263.544 236.174 263.202 236.076 262.957 236.223C262.811 236.321 262.713 236.467 262.664 236.663C262.078 241.794 261.833 261.685 260.171 267.012C258.51 272.339 260.905 278.057 260.905 285.877L259.536 314.662C259.536 314.955 259.292 315.2 258.999 315.2L252.547 315.346C252.254 315.346 252.01 315.151 251.961 314.858C251.521 310.215 247.269 275.418 246.878 269.993C246.389 264.129 243.652 214.915 244.385 211.934C244.972 210.077 274.1 214.622 277.619 215.208Z" fill="url(#paint0_linear_20_672)"/>
<path d="M275.225 128.559C275.225 128.559 273.612 121.912 272.292 121.912C270.973 121.912 263.202 122.89 262.224 127.581C261.247 132.273 257.679 134.912 257.679 140.581C257.679 146.25 255.382 148.89 255.382 148.89C255.382 148.89 252.792 140.532 250.886 136.916C248.979 133.299 245.607 131.002 245.607 128.559C245.607 126.115 248.491 98.3562 248.686 97.6232C248.882 96.8901 249.664 92.4916 247.953 89.9992C247.953 89.9992 242.821 85.6496 242.137 83.8902C241.6 82.4241 239.938 81.5933 239.009 83.3038C238.081 85.0143 241.991 89.6571 242.675 91.5142C243.261 93.2736 243.652 95.0818 243.848 96.939C243.848 97.4277 244.825 104.807 244.825 108.473C244.825 112.138 242.675 123.721 242.675 127.386C242.675 131.051 250.592 145.762 251.325 148.499C252.059 151.235 275.078 176.991 275.567 177.724C276.055 178.457 278.45 184.126 278.45 186.081C278.45 188.036 278.45 194.438 277.473 193.216C276.495 191.994 272.585 182.22 271.852 180.998C271.119 179.776 265.45 178.603 262.811 177.87C260.172 177.137 256.213 178.603 256.701 180.314C257.19 182.024 264.961 185.25 267.405 185.885C268.969 186.276 275.811 193.998 276.251 196.197C276.691 198.396 282.995 195.22 282.995 192.043C282.995 188.866 282.262 172.641 281.334 170.442C280.405 168.243 276.055 158.664 273.661 153.728C271.266 148.792 276.544 146.348 277.473 142.927C278.499 139.506 275.225 128.559 275.225 128.559Z" fill="url(#paint1_linear_20_672)"/>
<path d="M254.649 144.247C254.649 144.247 248.393 132.762 247.807 129.878C247.171 126.995 248.784 97.5254 248.784 97.5254L243.897 96.7924C243.897 96.7924 239.254 124.112 238.667 127.288C238.081 130.465 240.28 137.307 242.43 141.168C244.581 145.029 250.495 161.205 250.495 163.111C250.495 165.017 250.104 183.149 249.175 186.667C248.197 190.186 244.336 212.032 244.336 212.032L277.717 215.257C277.717 215.257 276.251 205.727 276.349 202.551C276.593 195.562 278.45 190.382 273.465 187.107C270.142 184.957 266.965 185.983 263.397 184.175C259.243 182.073 258.314 180.363 258.07 179.19C257.923 178.506 258.999 176.942 265.401 179.385C267.551 180.216 271.901 180.167 271.999 183.002C272.048 185.397 269.066 190.577 272.683 192.923C272.683 192.923 276.837 202.942 280.698 204.505C284.022 205.825 287.981 202.208 287.883 197.468C287.785 191.799 287.443 180.949 284.95 176.209C282.409 171.468 275.518 159.299 274.296 158.322C273.074 157.344 269.311 161.987 264.912 161.352C260.514 160.716 258.705 158.615 257.777 156.416C256.75 154.217 254.649 144.247 254.649 144.247Z" fill="url(#paint2_linear_20_672)"/>
<path d="M268.578 123.378C266.623 126.604 264.081 129.39 261.149 131.687C256.115 135.694 261.1 146.837 261.344 152.408C261.54 156.856 258.95 163.013 252.694 167.167C248.197 170.197 251.374 177.04 251.374 180.461C251.374 183.882 244.141 175.622 243.848 171.712C243.506 166.874 244.727 163.453 248.051 159.543C251.13 155.878 254.795 142.145 255.773 135.645C255.871 134.961 255.919 134.326 255.871 133.641C255.773 131.345 256.066 124.063 262.469 119.957C270.093 115.07 274.882 119.566 277.961 122.254C281.725 125.529 283.24 134.668 282.311 148.841C281.334 163.013 283.728 171.077 285.341 175.182C289.056 184.517 278.939 177.968 277.082 172.592C274.687 165.701 273.025 165.164 269.653 159.788C268.333 157.686 270.093 150.551 271.559 147.57C274.394 141.803 276.006 139.408 276.006 135.499C276.006 131.589 271.412 124.845 268.578 123.378Z" fill="url(#paint3_linear_20_672)"/>
<path opacity="0.07" d="M267.112 148.694C267.112 148.694 261.735 149.036 260.269 145.517C260.123 145.126 261.149 156.269 261.393 154.803C261.735 153.288 267.112 148.694 267.112 148.694Z" fill="black"/>
<path opacity="0.07" d="M276.593 174.449C276.593 174.449 277.815 182.366 278.499 185.983C278.89 187.938 279.134 189.893 279.183 191.896C279.183 191.896 274.589 186.032 273.123 183.686C272.194 182.22 274.98 182.953 275.225 177.577C275.469 172.201 275.42 168.731 275.42 168.731L276.593 174.449Z" fill="black"/>
<path opacity="0.07" d="M276.202 199.911C276.202 199.911 272.097 195.806 271.901 193.656C271.657 190.821 269.702 190.968 269.702 192.727C269.702 194.487 272.732 207.633 270.875 211.103C269.018 214.573 267.551 214.524 267.551 214.524L277.57 215.257L276.202 199.911Z" fill="black"/>
<path opacity="0.07" d="M267.6 214.475C267.6 214.475 267.014 224.934 270.63 228.404C278.01 235.49 273.661 244.776 276.984 248.832C279.77 252.204 280.454 261.93 287.101 264.08C289.74 264.96 299.173 259.046 301.079 258.362C305.135 256.945 307.97 248.979 320.628 244.873C323.56 243.896 312.857 244.922 312.857 244.922L289.593 254.794L277.571 215.257L267.6 214.475Z" fill="black"/>
<defs>
<linearGradient id="paint0_linear_20_672" x1="318.201" y1="263.404" x2="244.35" y2="263.404" gradientUnits="userSpaceOnUse">
<stop stop-color="#4B45BD"/>
<stop offset="1" stop-color="#58CAEA"/>
</linearGradient>
<linearGradient id="paint1_linear_20_672" x1="283.06" y1="139.623" x2="239.016" y2="139.623" gradientUnits="userSpaceOnUse">
<stop offset="0.11" stop-color="#F87B58"/>
<stop offset="0.5" stop-color="#F8C548"/>
<stop offset="1" stop-color="#F89C51"/>
</linearGradient>
<linearGradient id="paint2_linear_20_672" x1="282.116" y1="181.715" x2="212.246" y2="137.042" gradientUnits="userSpaceOnUse">
<stop stop-color="#E5A4ED"/>
<stop offset="1" stop-color="#7A5BF5"/>
</linearGradient>
<linearGradient id="paint3_linear_20_672" x1="286.116" y1="149.512" x2="243.773" y2="149.512" gradientUnits="userSpaceOnUse">
<stop stop-color="#4B45BD"/>
<stop offset="1" stop-color="#58CAEA"/>
</linearGradient>
</defs>
</svg>
