<svg width="198" height="53" viewBox="0 0 198 53" fill="none" xmlns="http://www.w3.org/2000/svg">
<path d="M115.425 17.45V35H111.15V24.475L107.225 35H103.775L99.825 24.45V35H95.55V17.45H100.6L105.525 29.6L110.4 17.45H115.425ZM124.849 35.2C123.483 35.2 122.249 34.9083 121.149 34.325C120.066 33.7417 119.208 32.9083 118.574 31.825C117.958 30.7417 117.649 29.475 117.649 28.025C117.649 26.5917 117.966 25.3333 118.599 24.25C119.233 23.15 120.099 22.3083 121.199 21.725C122.299 21.1417 123.533 20.85 124.899 20.85C126.266 20.85 127.499 21.1417 128.599 21.725C129.699 22.3083 130.566 23.15 131.199 24.25C131.833 25.3333 132.149 26.5917 132.149 28.025C132.149 29.4583 131.824 30.725 131.174 31.825C130.541 32.9083 129.666 33.7417 128.549 34.325C127.449 34.9083 126.216 35.2 124.849 35.2ZM124.849 31.5C125.666 31.5 126.358 31.2 126.924 30.6C127.508 30 127.799 29.1417 127.799 28.025C127.799 26.9083 127.516 26.05 126.949 25.45C126.399 24.85 125.716 24.55 124.899 24.55C124.066 24.55 123.374 24.85 122.824 25.45C122.274 26.0333 121.999 26.8917 121.999 28.025C121.999 29.1417 122.266 30 122.799 30.6C123.349 31.2 124.033 31.5 124.849 31.5ZM133.567 28C133.567 26.5667 133.834 25.3083 134.367 24.225C134.917 23.1417 135.659 22.3083 136.592 21.725C137.526 21.1417 138.567 20.85 139.717 20.85C140.701 20.85 141.559 21.05 142.292 21.45C143.042 21.85 143.617 22.375 144.017 23.025V21.05H148.292V35H144.017V33.025C143.601 33.675 143.017 34.2 142.267 34.6C141.534 35 140.676 35.2 139.692 35.2C138.559 35.2 137.526 34.9083 136.592 34.325C135.659 33.725 134.917 32.8833 134.367 31.8C133.834 30.7 133.567 29.4333 133.567 28ZM144.017 28.025C144.017 26.9583 143.717 26.1167 143.117 25.5C142.534 24.8833 141.817 24.575 140.967 24.575C140.117 24.575 139.392 24.8833 138.792 25.5C138.209 26.1 137.917 26.9333 137.917 28C137.917 29.0667 138.209 29.9167 138.792 30.55C139.392 31.1667 140.117 31.475 140.967 31.475C141.817 31.475 142.534 31.1667 143.117 30.55C143.717 29.9333 144.017 29.0917 144.017 28.025ZM159.885 20.9C161.518 20.9 162.818 21.4333 163.785 22.5C164.768 23.55 165.26 25 165.26 26.85V35H161.01V27.425C161.01 26.4917 160.768 25.7667 160.285 25.25C159.802 24.7333 159.152 24.475 158.335 24.475C157.518 24.475 156.868 24.7333 156.385 25.25C155.902 25.7667 155.66 26.4917 155.66 27.425V35H151.385V21.05H155.66V22.9C156.093 22.2833 156.677 21.8 157.41 21.45C158.143 21.0833 158.968 20.9 159.885 20.9ZM181.381 27.8C181.381 28.2 181.356 28.6167 181.306 29.05H171.631C171.697 29.9167 171.972 30.5833 172.456 31.05C172.956 31.5 173.564 31.725 174.281 31.725C175.347 31.725 176.089 31.275 176.506 30.375H181.056C180.822 31.2917 180.397 32.1167 179.781 32.85C179.181 33.5833 178.422 34.1583 177.506 34.575C176.589 34.9917 175.564 35.2 174.431 35.2C173.064 35.2 171.847 34.9083 170.781 34.325C169.714 33.7417 168.881 32.9083 168.281 31.825C167.681 30.7417 167.381 29.475 167.381 28.025C167.381 26.575 167.672 25.3083 168.256 24.225C168.856 23.1417 169.689 22.3083 170.756 21.725C171.822 21.1417 173.047 20.85 174.431 20.85C175.781 20.85 176.981 21.1333 178.031 21.7C179.081 22.2667 179.897 23.075 180.481 24.125C181.081 25.175 181.381 26.4 181.381 27.8ZM177.006 26.675C177.006 25.9417 176.756 25.3583 176.256 24.925C175.756 24.4917 175.131 24.275 174.381 24.275C173.664 24.275 173.056 24.4833 172.556 24.9C172.072 25.3167 171.772 25.9083 171.656 26.675H177.006ZM197.886 21.05L189.136 41.625H184.536L187.736 34.525L182.061 21.05H186.836L190.061 29.775L193.261 21.05H197.886Z" fill="#0C145A"/>
<path d="M69.1601 0H31.7388C31.3892 0 31.2144 0 31.0479 0.0283345C30.753 0.0785043 30.4731 0.194174 30.2289 0.366826C30.0909 0.464333 29.9671 0.587734 29.7196 0.834533L29.7196 0.834549L4.90059 25.5768C3.6736 26.8 3.0601 27.4116 2.91692 27.9095C2.65953 28.8045 3.05391 29.7587 3.86805 30.2108C4.32096 30.4623 5.18724 30.4623 6.91979 30.4623H33.7561C34.4771 30.4623 34.8376 30.4623 35.1301 30.5542C35.7542 30.7502 36.2431 31.239 36.4391 31.8631C36.5309 32.1556 36.5309 32.5161 36.5309 33.2371C36.5309 34.8067 36.5309 35.5915 36.7368 36.0094C37.1829 36.9149 38.2338 37.3461 39.1873 37.0148C39.6273 36.8619 40.1785 36.3033 41.2809 35.1861L71.1959 4.86877L71.1959 4.86869C72.4006 3.64777 73.003 3.03731 73.1424 2.54034C73.3931 1.6471 72.9966 0.698758 72.1847 0.249792C71.733 0 70.8754 0 69.1601 0Z" fill="#00BAFF"/>
<path d="M9.68678 53H46.9788C47.3299 53 47.5054 53 47.6726 52.9714C47.9686 52.9209 48.2495 52.8043 48.4943 52.6303C48.6325 52.5321 48.7565 52.4077 49.0043 52.1591L73.7556 27.3284C74.9741 26.1061 75.5833 25.4949 75.7251 24.9974C75.9799 24.1031 75.5847 23.1511 74.7714 22.7002C74.319 22.4494 73.456 22.4494 71.7301 22.4494H42.3118C41.0242 22.4494 40.0815 21.2361 40.3998 19.9884C40.8982 18.0345 38.4907 16.6793 37.0789 18.1191L7.64468 48.1376C6.44833 49.3577 5.85015 49.9678 5.71212 50.4644C5.46404 51.357 5.86139 52.3031 6.67239 52.7509C7.12363 53 7.97801 53 9.68678 53Z" fill="#4D17E2"/>
<path d="M42.0473 13L25 30.3502H36.7568L36.6588 40L54 22.4549H42.0473V13Z" fill="white"/>
</svg>
