<svg width="80" height="60" viewBox="0 0 80 60" fill="none" xmlns="http://www.w3.org/2000/svg">
<rect width="80" height="60" rx="16" fill="#D7D7F8"/>
<mask id="mask0_42_273" style="mask-type:alpha" maskUnits="userSpaceOnUse" x="0" y="0" width="80" height="60">
<rect width="80" height="60" rx="16" fill="#D7D7F8"/>
</mask>
<g mask="url(#mask0_42_273)">
<mask id="mask1_42_273" style="mask-type:alpha" maskUnits="userSpaceOnUse" x="20" y="16" width="30" height="49">
<path d="M20 22C20 18.6863 22.6863 16 26 16H44C47.3137 16 50 18.6863 50 22V65H20V22Z" fill="#695DE9"/>
</mask>
<g mask="url(#mask1_42_273)">
<path d="M20 22C20 18.6863 22.6863 16 26 16H44C47.3137 16 50 18.6863 50 22V65H20V22Z" fill="#695DE9"/>
<path d="M24 42C24 40.3431 25.3431 39 27 39H36C37.6569 39 39 40.3431 39 42V61C39 62.6569 37.6569 64 36 64H27C25.3431 64 24 62.6569 24 61V42Z" fill="#B7B0F4"/>
<path d="M42 42C42 40.3431 43.3431 39 45 39H54C55.6569 39 57 40.3431 57 42V61C57 62.6569 55.6569 64 54 64H45C43.3431 64 42 62.6569 42 61V42Z" fill="white"/>
<circle cx="50" cy="23" r="10" fill="#4F46B5"/>
</g>
<circle cx="50" cy="21" r="9" fill="#2B2467"/>
<path d="M49.511 16.0768C49.6649 15.603 50.3353 15.603 50.4892 16.0768L51.3279 18.6581C51.3968 18.87 51.5943 19.0135 51.8171 19.0135H54.5312C55.0294 19.0135 55.2366 19.651 54.8335 19.9438L52.6377 21.5392C52.4575 21.6701 52.382 21.9023 52.4509 22.1142L53.2896 24.6955C53.4436 25.1693 52.9013 25.5633 52.4982 25.2705L50.3024 23.6751C50.1221 23.5442 49.8781 23.5442 49.6978 23.6751L47.502 25.2705C47.099 25.5633 46.5566 25.1693 46.7106 24.6955L47.5493 22.1142C47.6182 21.9023 47.5428 21.6701 47.3625 21.5392L45.1667 19.9438C44.7636 19.651 44.9708 19.0135 45.469 19.0135H48.1831C48.406 19.0135 48.6034 18.87 48.6723 18.6581L49.511 16.0768Z" fill="white"/>
<path d="M35 22L25 22" stroke="white" stroke-width="2.5" stroke-linecap="round" stroke-linejoin="round"/>
<path d="M32 27L25 27" stroke="#B7B0F4" stroke-width="2.5" stroke-linecap="round" stroke-linejoin="round"/>
</g>
</svg>
