<svg width="520" height="249" viewBox="0 0 520 249" fill="none" xmlns="http://www.w3.org/2000/svg">
<path d="M511.649 50.675H8.35113C3.75727 50.675 0.0332031 54.4012 0.0332031 58.9977V240.677C0.0332031 245.274 3.75727 249 8.35113 249H511.649C516.243 249 519.967 245.274 519.967 240.677V58.9977C519.967 54.4012 516.243 50.675 511.649 50.675Z" fill="url(#paint0_linear_40_196)"/>
<path opacity="0.1" d="M292.533 112.963V209.649C292.548 210.631 292.757 211.6 293.146 212.501C293.536 213.402 294.1 214.218 294.805 214.901C295.51 215.584 296.343 216.121 297.255 216.481C298.168 216.842 299.143 217.019 300.124 217.002H499.916C500.898 217.019 501.873 216.842 502.787 216.482C503.7 216.121 504.534 215.584 505.24 214.901C505.946 214.219 506.51 213.403 506.901 212.502C507.292 211.601 507.502 210.631 507.519 209.649V112.963C507.502 111.98 507.292 111.011 506.901 110.11C506.51 109.208 505.946 108.393 505.24 107.71C504.534 107.027 503.7 106.49 502.787 106.13C501.873 105.77 500.898 105.593 499.916 105.609H300.124C299.143 105.593 298.168 105.77 297.255 106.13C296.343 106.491 295.51 107.028 294.805 107.711C294.1 108.394 293.536 109.209 293.146 110.11C292.757 111.012 292.548 111.981 292.533 112.963Z" fill="black"/>
<path opacity="0.1" d="M234.492 85.374H22.3679C17.6593 85.374 13.8423 89.1932 13.8423 93.9045V229.711C13.8423 234.422 17.6593 238.242 22.3679 238.242H234.492C239.201 238.242 243.018 234.422 243.018 229.711V93.9045C243.018 89.1932 239.201 85.374 234.492 85.374Z" fill="black"/>
<path d="M481.088 84.4275C481.088 84.4275 481.088 20.9395 481.088 16.9224C481.088 12.9053 150.713 39.755 74.3174 0.0461426L53.5283 84.4275H481.088Z" fill="white"/>
<path d="M199.421 60.6831H332.819" stroke="#7A5BF5" stroke-width="0.407665" stroke-miterlimit="10"/>
<path d="M185.877 73.6116H319.275" stroke="#7A5BF5" stroke-width="0.407665" stroke-miterlimit="10"/>
<path d="M27.225 69.4905H229.613C230.729 69.4905 231.8 69.9344 232.59 70.7245C233.38 71.5147 233.823 72.5863 233.823 73.7038V102.031H23.0142V73.7038C23.0142 72.5863 23.4578 71.5147 24.2475 70.7245C25.0372 69.9344 26.1082 69.4905 27.225 69.4905Z" fill="url(#paint1_linear_40_196)"/>
<path d="M27.225 87.3479H229.613C230.729 87.3479 231.8 87.7918 232.59 88.5819C233.38 89.3721 233.823 90.4438 233.823 91.5612V123.882H23.0142V91.5612C23.0142 90.4438 23.4578 89.3721 24.2475 88.5819C25.0372 87.7918 26.1082 87.3479 27.225 87.3479Z" fill="white"/>
<path d="M27.2251 112.351H229.613C230.166 112.351 230.713 112.46 231.224 112.671C231.735 112.883 232.199 113.193 232.59 113.585C232.981 113.976 233.291 114.44 233.503 114.952C233.715 115.463 233.823 116.011 233.823 116.564V136.868H23.0142V116.587C23.0112 116.032 23.1179 115.481 23.3281 114.968C23.5384 114.454 23.8481 113.986 24.2394 113.593C24.6307 113.199 25.0959 112.887 25.6083 112.673C26.1207 112.46 26.6702 112.351 27.2251 112.351Z" fill="url(#paint2_linear_40_196)"/>
<path opacity="0.1" d="M282.347 85.374H279.37V238.242H282.347V85.374Z" fill="black"/>
<path opacity="0.1" d="M257.358 85.374H254.382V238.242H257.358V85.374Z" fill="black"/>
<path d="M73.1753 69.4904L82.6469 23.248C100.09 42.2252 438.068 44.303 468.248 33.9256L466.171 84.4274" stroke="#7A5BF5" stroke-width="0.407665" stroke-miterlimit="10"/>
<defs>
<linearGradient id="paint0_linear_40_196" x1="0.0332031" y1="149.843" x2="519.967" y2="149.843" gradientUnits="userSpaceOnUse">
<stop stop-color="#E5A4ED"/>
<stop offset="1" stop-color="#7A5BF5"/>
</linearGradient>
<linearGradient id="paint1_linear_40_196" x1="23.0142" y1="85.7665" x2="233.835" y2="85.7665" gradientUnits="userSpaceOnUse">
<stop stop-color="#7A5BF5"/>
<stop offset="1" stop-color="#CD94EF"/>
</linearGradient>
<linearGradient id="paint2_linear_40_196" x1="23.0142" y1="124.61" x2="233.835" y2="124.61" gradientUnits="userSpaceOnUse">
<stop stop-color="#7A5BF5"/>
<stop offset="1" stop-color="#CD94EF"/>
</linearGradient>
</defs>
</svg>
